<svg xmlns="http://www.w3.org/2000/svg" width="4000" height="4000" viewBox="0 0 0 0 4000 0 4000"><path d="M2000 4000C895.43 4000 0 3104.569 0 2000 0 895.43 895.43 0 2000 0c1104.569 0 2000 895.43 2000 2000 0 1104.569-895.431 2000-2000 2000z" fill="#F66BFF"/><path d="M2000 3700c-938.884 0-1700-761.116-1700-1700S1061.116 300 2000 300s1700 761.116 1700 1700-761.116 1700-1700 1700z" fill="#FBC4FF"/><path d="M2000 3371.61c-376.022 0-680.85-26.894-680.85-60.079 0-33.176 304.828-60.071 680.85-60.071 376.022 0 680.85 26.895 680.85 60.071 0 33.185-304.828 60.079-680.85 60.079" fill="#58A8CC"/><path d="M2655.72 2490.78c-.4 11.48-1.28 22.88-2.64 34.16a411.23 411.23 0 0 1-21.96 92.24c-37.44 102.84-115.32 190-221.16 237.16l-5.92 2.64c-119.96 53.52-247.92 81.72-376.36 84.76-16.96.4-33.92.36-50.92-.12-128.48-3.64-256.44-32.48-376.16-86.64-106-47.88-183.68-136-220.4-239.64-3.6-10.08-6.8-20.36-9.52-30.72-5.36-19.64-9.2-39.72-11.52-60.12-1.4-12.12-2.28-24.32-2.56-36.6-.08-3.36-.12-6.68-.12-10.04 0-30.76 3.44-61.88 10.64-92.92 25.44-109.76 58.48-208.6 88.32-286.32 17.16-44.68 33.24-82.44 46.12-111.24 1.04-2.28 2.04-4.48 3-6.64 10.48-23.08 18.56-39.72 23.08-48.76 2.56-5.16 3.96-7.88 3.96-7.88h949.56s1.6 3.04 4.48 8.88c4.96 10 13.8 28.24 25.08 53.36.96 2.16 1.96 4.36 3 6.64 14.72 33.12 33.12 76.96 52.4 128.92 27.24 73.32 56.24 162.84 79.12 261.16 8.4 36 11.76 72.2 10.48 107.72" fill="#F0CC9F"/><path d="M2006.96 2722.12c-4.18-.98-8.37-1.98-12.55-3-12.95-3.16-23.87-7.15-34.21-10.65-3.54-1.19-7.02-2.33-10.53-3.33-14.66-9.91-31.72-18.09-51.26-24.14-97.09-30.11-164.56-54.32-213.71-73.92-36.87-14.7-63.42-26.79-84.63-36.94-15.91-7.61-28.84-14.14-40.98-19.92-9.11-4.33-17.78-8.24-26.83-11.77-13.57-5.29-27.92-9.65-45.39-13.28-17.5-3.63-38.13-6.57-64.8-9.22-7.03-.7-14.04-1.04-21.03-1.04-2.02 0-4.04.03-6.05.08 1.9-1.75 3.79-3.52 5.65-5.31 17.01-16.08 33-33.16 47.62-51.25 29.67-35.91 54.31-75.25 77.47-115.23 11.48-20.08 21.37-41.03 29.41-62.7.24-.64.48-1.28.71-1.92-13.14 63.47-36.35 135.71-77.25 198.44-1.36 2.12-2.76 4.24-4.2 6.32 113.16 17.52 79.32 50.08 431.48 159.32 42.72 13.24 71.2 36.76 88.64 65.48 17.4-28.72 45.88-52.24 88.6-65.48 362.16-112.32 316.08-143.6 441.52-160.76-1.12-1.6-2.16-3.24-3.24-4.88-40.9-62.72-64.11-134.98-77.25-198.44.23.64.47 1.28.71 1.92 8.04 21.67 17.93 42.62 29.41 62.7 23.16 39.98 47.8 79.32 77.47 115.23 14.62 18.09 30.61 35.17 47.61 51.25 1.89 1.81 3.8 3.6 5.72 5.37-4.39.16-8.8.46-13.21.9-21.08 2.09-38.38 4.37-53.35 7.02-13.09 2.33-24.4 4.94-34.78 7.97-9.08 2.65-17.43 5.61-25.56 8.9-7.12 2.88-14.07 6-21.25 9.39-12.57 5.93-25.86 12.67-42.35 20.56-24.72 11.84-56.71 26.36-103.97 44.59-47.25 18.23-109.72 40.14-195.08 66.62-19.54 6.06-36.61 14.23-51.27 24.14-6.06 1.73-12.06 3.86-18.41 6.03-8.04 2.74-16.62 5.58-26.32 7.95-4.19 1.02-8.38 2.02-12.56 3m-439.61-514.82c-.31-.16-.62-.28-.93-.38l1.53-4.88c-.2 1.74-.4 3.49-.6 5.26m865.3 0c-.2-1.77-.4-3.52-.6-5.26l1.53 4.88c-.32.1-.63.23-.93.38" fill="#CC998B"/><path d="M2409.96 2854.34l-6.52-14.61-5.94 2.65c-125.1 55.78-259.08 83.64-393.04 83.64a964.658 964.658 0 0 1-397.29-85.6l-6.59 14.58 10-12.5-1.57-1.26-1.84-.82c-72.47-32.75-131.12-84.99-171.7-148.27-40.58-63.28-63.03-137.55-63.03-214.29 0-29.55 3.33-59.48 10.24-89.31 25.22-108.83 58.06-207 87.67-284.19v.01c20.47-53.33 39.38-96.65 53.14-126.59 6.89-14.97 12.48-26.59 16.35-34.45 1.93-3.93 3.43-6.91 4.44-8.9.5-1 .88-1.75 1.14-2.24.12-.24.22-.43.28-.54l.06-.13.02-.03-5.25-2.73 5.25 2.73-5.25-2.73 5.25 2.73-14.19-7.39v16h949.56v-16l-14.19 7.39 4.73-2.46-4.74 2.46h.01l4.73-2.46-4.74 2.46c.09.16 39.75 76.39 84.14 195.99l.01.01c27.05 72.81 55.85 161.69 78.55 259.19 6.98 29.96 10.34 60.02 10.34 89.71 0 77.06-22.66 151.64-63.56 215.09-40.91 63.44-100.02 115.71-172.99 148.25l13.04 29.22c78.77-35.12 142.68-91.62 186.84-160.13 44.18-68.51 68.66-149.08 68.67-232.43 0-32.1-3.64-64.61-11.17-96.97-23.09-99.14-52.3-189.25-79.73-263.08v.01c-45.19-121.74-85.53-199.2-85.75-199.64l-4.49-8.61h-968.97l-4.48 8.61c-.22.41-35.42 68.06-76.92 176.19h-.01c-30.02 78.27-63.32 177.77-88.96 288.43-7.47 32.22-11.07 64.58-11.07 96.53 0 82.99 24.27 163.23 68.09 231.57 43.81 68.33 107.23 124.8 185.46 160.15l6.59-14.58-9.99 12.49 1.57 1.26 1.83.83a996.658 996.658 0 0 0 410.47 88.44c138.4 0 276.83-28.79 406.07-86.41l5.95-2.66-6.52-14.61" fill="#802861"/><path d="M1970.75 2933.61c69.08 18.96 138.56 32.08 144.4 42.62 16.54 29.85-162.84 104.97-266.25 63.48l121.85-106.1" fill="#FFF"/><path d="M1891.27 2919.86l8.54 13.52c1.63-1.02 2.97-1.59 4.25-1.96 1.29-.36 2.56-.54 4.15-.54 2.18-.01 4.98.38 8.53 1.32 2.66.69 5.7 1.67 9.11 2.88 5.12 1.8 11.04 4.12 17.8 6.58 6.76 2.45 14.35 5.05 22.87 7.38 17.47 4.8 34.89 9.2 51.25 13.27 12.27 3.06 23.95 5.92 34.59 8.62 7.98 2.02 15.37 3.94 21.97 5.76 4.95 1.37 9.45 2.68 13.39 3.92a181 181 0 0 1 7.85 2.65c1.69.62 3.16 1.21 4.37 1.74 1.81.78 3.04 1.48 3.36 1.7l.07.05 2.93-3.97-3.53 3.42c.39.4.58.53.6.55l2.93-3.97-3.53 3.42 7.5-7.26-9.11 5.05c.64 1.15 1.23 1.81 1.61 2.21l7.5-7.26-9.11 5.05 6.54-3.63-7.24 1.86c.16.64.42 1.27.7 1.77l6.54-3.63-7.24 1.86 7.19-1.85h-7.43c0 .55.07 1.2.24 1.85l7.19-1.85h-7.43 5.68l-5.53-1.33c-.07.28-.15.74-.15 1.33h5.68l-5.53-1.33 2.98.72-2.9-1.01c-.02.06-.05.15-.08.29l2.98.72-2.9-1.01 1.25.44-1.23-.49-.02.05 1.25.44-1.23-.49c-.03.07-.34.68-1.05 1.57-.67.85-1.67 1.94-2.98 3.17-2.47 2.31-6.03 5.07-10.44 7.95-7.75 5.07-18.11 10.53-30.18 15.73-18.12 7.82-40.12 15.08-63.46 20.32-23.34 5.25-48.03 8.49-71.56 8.48-12.06 0-23.82-.85-34.92-2.66-11.1-1.81-21.54-4.59-31.03-8.4-5.14-2.06-9.23-4.19-12.37-6.23-2.36-1.54-4.17-3.01-5.55-4.37-2.08-2.04-3.16-3.76-3.82-5.28-.65-1.52-.94-2.92-.95-4.68 0-1.89.4-4.23 1.39-7.03.87-2.44 2.2-5.19 3.96-8.1 3.08-5.1 7.5-10.68 12.67-16.17 7.76-8.25 17.19-16.33 26.16-23.22 8.97-6.89 17.51-12.63 23.47-16.4l-8.54-13.52-8.54-13.54a351.44 351.44 0 0 0-22.07 15.2c-6.35 4.74-13.1 10.11-19.71 15.97-4.96 4.4-9.86 9.07-14.46 14-6.9 7.39-13.19 15.32-18.02 23.98-2.41 4.34-4.45 8.88-5.93 13.68-1.47 4.8-2.38 9.88-2.38 15.15 0 5.13.89 10.43 2.81 15.5 1.44 3.81 3.44 7.47 5.93 10.85 3.74 5.1 8.53 9.57 14.2 13.51 5.68 3.93 12.26 7.36 19.84 10.4 12.01 4.82 24.71 8.15 37.78 10.28 13.08 2.14 26.53 3.08 40.08 3.08 24.41 0 49.18-3.06 72.74-7.99 17.68-3.71 34.66-8.48 50.3-13.89 11.72-4.06 22.68-8.48 32.62-13.1 7.45-3.47 14.32-7.05 20.53-10.72 4.66-2.75 8.94-5.55 12.83-8.42 2.92-2.16 5.62-4.35 8.09-6.63 3.7-3.43 6.94-7.02 9.56-11.25 1.31-2.13 2.46-4.43 3.33-7.02.86-2.57 1.42-5.45 1.42-8.53 0-2-.24-4.08-.76-6.1a24.49 24.49 0 0 0-2.31-5.79c-.92-1.65-1.92-2.94-2.9-4.02-1.92-2.08-3.74-3.43-5.54-4.61-1.7-1.1-3.39-2.02-5.15-2.88-3.3-1.6-6.89-3.02-10.89-4.44-7-2.47-15.29-4.91-24.72-7.48-14.14-3.84-30.8-7.92-48.75-12.37-17.94-4.45-37.14-9.26-56.21-14.5-13.13-3.59-24.12-8.01-34.56-11.86-5.23-1.92-10.33-3.71-15.61-5.09-5.27-1.37-10.76-2.35-16.61-2.35-4.22-.01-8.61.53-12.94 1.77s-8.56 3.16-12.54 5.67l8.54 13.54" fill="#802861"/><path d="M2013.52 2835.94c69.18 18.56 138.74 31.29 144.64 41.79 16.71 29.76-162.24 105.9-265.89 65.01l121.25-106.8" fill="#FFF"/><path d="M1933.95 2822.64l8.62 13.48c1.65-1.05 2.99-1.62 4.29-2 1.29-.37 2.59-.55 4.21-.56 2.19 0 5.01.39 8.56 1.31 2.66.68 5.71 1.65 9.12 2.84 5.12 1.78 11.05 4.05 17.8 6.46s14.33 4.95 22.82 7.23c17.5 4.69 34.94 8.99 51.33 12.97 12.29 2.99 23.98 5.78 34.63 8.42 7.99 1.97 15.4 3.85 22.01 5.64 4.95 1.33 9.46 2.62 13.41 3.84 2.96.91 5.6 1.79 7.86 2.61 1.7.61 3.17 1.19 4.39 1.71 1.81.77 3.04 1.46 3.36 1.68l.07.04h.01l2.9-3.98-3.51 3.44c.39.4.59.53.61.54l2.9-3.98-3.51 3.44 7.46-7.3-9.08 5.1c.65 1.15 1.24 1.81 1.62 2.2l7.46-7.3-9.08 5.1 6.52-3.67-7.24 1.88c.17.65.43 1.28.72 1.79l6.52-3.67-7.24 1.88 7.17-1.86h-7.41c0 .55.07 1.21.24 1.86l7.17-1.86h-7.41 5.61l-5.47-1.32c-.06.28-.14.73-.14 1.32h5.61l-5.47-1.32 2.87.69-2.79-.96c-.02.05-.05.14-.08.27l2.87.69-2.79-.96 1.09.38-1.07-.43-.02.05 1.09.38-1.07-.43.3.12-.3-.12.3.12-.3-.12-.04.09c-.13.25-.57.99-1.4 1.98-1.55 1.88-4.43 4.59-8.38 7.51-3.46 2.57-7.73 5.34-12.66 8.15-8.62 4.94-19.23 10.02-31.17 14.78-17.9 7.16-38.79 13.64-60.65 18.29-21.86 4.65-44.71 7.46-66.51 7.46-11.79 0-23.28-.82-34.14-2.57-10.86-1.76-21.08-4.44-30.4-8.12-5.18-2.04-9.3-4.15-12.45-6.19-2.37-1.52-4.19-2.99-5.58-4.35-2.08-2.03-3.17-3.75-3.83-5.26-.65-1.52-.93-2.93-.95-4.71 0-1.9.39-4.25 1.39-7.06.87-2.45 2.19-5.2 3.94-8.13 3.06-5.12 7.45-10.71 12.59-16.22 7.71-8.28 17.08-16.39 25.99-23.31 8.92-6.94 17.4-12.71 23.33-16.5l-8.62-13.48-8.61-13.48c-5.81 3.71-13.53 8.94-21.94 15.29-6.31 4.76-13.01 10.15-19.58 16.04-4.93 4.41-9.79 9.1-14.36 14.04-6.86 7.42-13.1 15.36-17.89 24.03-2.39 4.34-4.42 8.87-5.88 13.67-1.46 4.78-2.35 9.85-2.36 15.11 0 5.15.89 10.47 2.83 15.56 1.44 3.81 3.46 7.48 5.97 10.88 3.76 5.1 8.59 9.58 14.3 13.5 5.72 3.93 12.34 7.33 19.97 10.34 11.79 4.65 24.24 7.87 37.04 9.94 12.8 2.06 25.97 2.98 39.24 2.98 24.51 0 49.41-3.12 73.1-8.15 17.77-3.78 34.86-8.64 50.59-14.14 11.8-4.13 22.83-8.62 32.83-13.31 7.49-3.52 14.41-7.16 20.66-10.88 4.69-2.78 8.99-5.62 12.91-8.52 2.93-2.18 5.64-4.4 8.12-6.7 3.72-3.47 6.97-7.08 9.6-11.33 1.31-2.13 2.46-4.45 3.33-7.04.86-2.58 1.43-5.46 1.43-8.55 0-2.02-.25-4.12-.78-6.17s-1.34-4.04-2.36-5.85c-.93-1.64-1.94-2.93-2.93-4-1.92-2.07-3.76-3.41-5.56-4.58-1.7-1.09-3.4-2-5.17-2.85-3.31-1.59-6.9-2.98-10.91-4.38-7.02-2.43-15.32-4.83-24.77-7.34-14.16-3.75-30.84-7.74-48.81-12.09-17.97-4.35-37.2-9.05-56.3-14.17-13.09-3.51-24.07-7.84-34.49-11.62-5.22-1.88-10.31-3.64-15.57-4.99-5.25-1.35-10.72-2.31-16.53-2.32-4.26 0-8.7.55-13.07 1.81-4.38 1.26-8.65 3.22-12.66 5.79l8.61 13.48" fill="#802861"/><path d="M1910.77 2723.17c20.74-13.93 41.08 2.03 79.84 11.49 69.59 16.98 139.42 28.12 145.56 38.49 17.38 29.36-159.79 109.57-264.34 71.04-82.48-30.4 8.38-100.49 38.94-121.02" fill="#FFF"/><path d="M1910.77 2723.17l8.92 13.28c1.7-1.13 3.07-1.74 4.42-2.15 1.35-.39 2.72-.6 4.48-.6 2.23-.01 5.1.37 8.68 1.24 5.37 1.29 12.23 3.68 20.47 6.51 8.24 2.81 17.89 6.02 29.08 8.75 17.61 4.3 35.14 8.21 51.61 11.81 12.35 2.7 24.11 5.23 34.82 7.62 8.03 1.79 15.48 3.51 22.12 5.14 4.99 1.23 9.52 2.41 13.5 3.54 2.98.84 5.64 1.66 7.92 2.42 1.71.58 3.2 1.12 4.42 1.62 1.83.73 3.08 1.38 3.4 1.6l.08.04 2.82-4.04-3.43 3.52c.39.38.59.51.61.52l2.82-4.04-3.43 3.52 7.28-7.48-8.96 5.31c.68 1.13 1.29 1.78 1.68 2.17l7.28-7.48-8.96 5.31 6.45-3.82-7.23 1.95c.18.68.47 1.35.78 1.87l6.45-3.82-7.23 1.95 7.08-1.91h-7.34c0 .55.07 1.23.26 1.91l7.08-1.91h-7.34 5.32l-5.19-1.25c-.06.24-.13.67-.13 1.25h5.32l-5.19-1.25 2.36.57-2.3-.79c-.01.03-.03.1-.06.22l2.36.57-2.3-.79.48.16-.47-.18-.01.02.48.16-.47-.18c0 .02-.28.64-.98 1.57-.65.88-1.66 2.05-2.99 3.36-2.5 2.47-6.14 5.44-10.69 8.56-7.97 5.48-18.69 11.44-31.19 17.13-18.76 8.56-41.57 16.58-65.68 22.39-24.11 5.81-49.55 9.42-73.57 9.41-10.75 0-21.21-.71-31.14-2.24-9.93-1.52-19.32-3.85-27.96-7.04-5.32-1.95-9.53-4.01-12.75-6-2.42-1.5-4.28-2.95-5.68-4.28-2.11-2.01-3.2-3.7-3.87-5.22-.34-.76-.57-1.5-.73-2.28-.16-.78-.24-1.61-.24-2.53-.01-1.93.39-4.34 1.37-7.19.85-2.48 2.15-5.28 3.87-8.23 2.99-5.18 7.27-10.84 12.28-16.42 7.51-8.39 16.63-16.64 25.32-23.7 8.69-7.06 16.96-12.97 22.76-16.87l-17.84-26.56c-5.68 3.82-13.21 9.17-21.41 15.64-6.15 4.86-12.68 10.35-19.07 16.33-4.8 4.48-9.52 9.23-13.97 14.23-6.66 7.49-12.71 15.49-17.35 24.16-2.32 4.34-4.28 8.87-5.69 13.63-1.41 4.76-2.27 9.78-2.27 14.98-.01 5.21.89 10.61 2.88 15.76 1.48 3.87 3.55 7.58 6.13 11.01 3.87 5.14 8.84 9.62 14.7 13.49 5.88 3.88 12.67 7.19 20.49 10.08 10.95 4.03 22.41 6.83 34.18 8.64 11.76 1.81 23.82 2.61 35.99 2.61 24.91 0 50.28-3.37 74.46-8.77 18.14-4.06 35.61-9.27 51.7-15.15 12.07-4.41 23.37-9.19 33.6-14.17 7.68-3.74 14.77-7.59 21.16-11.51 4.79-2.94 9.19-5.92 13.19-8.96 2.99-2.28 5.75-4.59 8.28-6.98 3.78-3.59 7.06-7.3 9.71-11.63 1.32-2.16 2.48-4.5 3.35-7.12.87-2.61 1.45-5.52 1.45-8.64 0-2.11-.27-4.3-.85-6.44a24.59 24.59 0 0 0-2.57-6.08c-.97-1.62-2.01-2.89-3.02-3.94-1.97-2.02-3.83-3.32-5.67-4.45-1.72-1.05-3.44-1.91-5.23-2.73-3.34-1.51-6.96-2.82-11.01-4.13-7.06-2.27-15.42-4.47-24.92-6.77-14.24-3.43-31.02-7.04-49.08-10.98-18.06-3.93-37.39-8.2-56.6-12.88-12.95-3.16-23.87-7.15-34.21-10.65-5.18-1.74-10.23-3.37-15.41-4.63-5.17-1.25-10.53-2.14-16.2-2.14-4.43-.01-9.05.57-13.61 1.93-4.56 1.35-9 3.48-13.13 6.26l8.92 13.28" fill="#802861"/><path d="M1927.76 3023.1c-134.84 87.72-475.2 73.67-613.98-64.87-231.58-231.16-64.88-443.42 106.7-426.36 166.42 16.54 83.6 43.58 473.19 164.41 172.93 53.64 112.27 275.96 34.09 326.82" fill="#DCB191"/><path d="M2086.17 3023.1c134.84 87.72 475.19 73.67 613.97-64.87 231.59-231.16 64.89-443.42-106.7-426.36-166.42 16.54-83.59 43.58-473.19 164.41-172.93 53.64-112.26 275.96-34.08 326.82" fill="#DCB191"/><path d="M1927.76 3023.1c-134.84 87.72-475.2 73.67-613.98-64.87-231.58-231.16-64.88-443.42 106.7-426.36 166.42 16.54 83.6 43.58 473.19 164.41 172.93 53.64 112.27 275.96 34.09 326.82" fill="#DCB191"/><path d="M2086.17 3023.1c134.84 87.72 475.19 73.67 613.97-64.87 231.59-231.16 64.89-443.42-106.7-426.36-166.42 16.54-83.59 43.58-473.19 164.41-172.93 53.64-112.26 275.96-34.08 326.82" fill="#DCB191"/><path d="M1927.74 3023.1c-134.84 87.72-475.16 73.68-613.96-64.88-157.36-157.08-130.84-305.4-43.84-379 41.04-34.72 95.56-52.84 150.56-47.36 136.4 13.56 105.32 34.2 304.32 107.72 43.76 16.2 98.6 34.92 168.84 56.72 172.96 53.6 112.28 275.92 34.08 326.8" fill="#F0CC9F"/><path d="M1684.78 3062.11c-67.6 0-138.53-9.45-202.03-28.71-31.77-9.62-61.67-21.69-88.38-36.14-26.71-14.46-50.19-31.29-69.28-50.35-39.67-39.59-66.93-78.22-84.25-114.65-17.31-36.45-24.72-70.66-24.72-101.86 0-8.07.5-15.94 1.45-23.61 17.25 44.46 48.18 91.62 96.21 139.55 81.6 81.44 232.88 119.86 371.08 119.86 76.43 0 148.84-11.74 203.3-34.45 8.18 4.11 17.16 8.08 26.78 11.84 3.38 1.32 6.85 2.61 10.39 3.87-3.06.89-5.98 1.76-8.73 2.63-3.33 1.04-6.43 2.09-9.3 3.14-2.16.8-4.2 1.6-6.13 2.45-2.9 1.28-5.55 2.59-8.2 4.33a30.13 30.13 0 0 0-4.05 3.18c-1.37 1.31-2.83 2.94-4.14 5.29-1 1.79-1.79 3.76-2.31 5.79-.52 2.02-.77 4.1-.77 6.1 0 2.16.28 4.23.75 6.16.91 3.74 2.45 6.93 4.25 9.79 1.7 2.68 3.65 5.09 5.8 7.38 4.04 4.28 8.8 8.19 14.27 12.01.35.25.7.49 1.06.73-10.11 5.66-21.36 10.87-33.58 15.57-25.42 9.78-55 17.35-87.09 22.42-32.09 5.08-66.71 7.68-102.24 7.68H1684.78" fill="#CC998B"/><path d="M1927.76 3023.1l-8.73-13.41c-12.76 8.3-27.84 15.8-44.78 22.32-25.42 9.78-55 17.35-87.09 22.42-32.1 5.08-66.72 7.68-102.26 7.68-67.63.01-138.62-9.44-202.15-28.71-31.77-9.62-61.67-21.69-88.38-36.14-26.71-14.46-50.19-31.29-69.28-50.35-39.67-39.59-66.93-78.22-84.25-114.65-17.31-36.45-24.72-70.66-24.72-101.86 0-27.05 5.57-51.89 15.38-74.08 7.36-16.64 17.12-31.78 28.77-45.17 17.47-20.07 39.2-36.15 63.3-47.2 24.11-11.05 50.56-17.04 77.47-17.04 5.94 0 11.9.29 17.86.88 20.53 2.04 37.04 4.23 50.92 6.69 12.15 2.16 22.27 4.52 31.41 7.18 8 2.34 15.26 4.91 22.54 7.85 6.36 2.57 12.74 5.43 19.58 8.66 11.97 5.65 25.34 12.42 42.18 20.48 25.26 12.11 58.24 27.06 106.28 45.59 48.05 18.54 111.21 40.68 197.12 67.32 18.97 5.89 34.51 13.83 47.26 23.22 9.56 7.05 17.57 14.92 24.27 23.48 10.05 12.83 17.18 27.25 21.85 42.77 4.67 15.51 6.83 32.11 6.83 49.04 0 16.69-2.1 33.67-5.9 50.1-5.68 24.64-15.18 48.03-26.67 67.24-5.73 9.6-11.95 18.16-18.34 25.32-6.38 7.15-12.94 12.89-19.2 16.96l8.73 13.41 8.72 13.41c12.2-7.95 23.31-18.84 33.36-31.78 15.04-19.43 27.72-43.56 36.8-70.1 9.06-26.54 14.49-55.5 14.5-84.56 0-17.46-1.97-34.96-6.41-51.92-3.32-12.72-8.03-25.14-14.33-36.95-9.43-17.7-22.48-34.01-39.44-47.71-16.95-13.72-37.77-24.81-62.55-32.49-97.09-30.11-164.56-54.32-213.71-73.92-36.87-14.7-63.42-26.79-84.63-36.94-15.91-7.61-28.84-14.14-40.98-19.92-9.11-4.33-17.78-8.24-26.83-11.77-13.57-5.29-27.92-9.65-45.39-13.28-17.5-3.63-38.13-6.57-64.8-9.22-7.03-.7-14.04-1.04-21.03-1.04-28.15 0-55.74 5.56-81.31 15.87-38.34 15.45-72.18 41.56-96.54 75.79a209.6 209.6 0 0 0-28.68 57.03c-6.73 20.78-10.39 43.2-10.39 66.8-.01 36.3 8.67 75.33 27.82 115.59 19.15 40.28 48.71 81.82 90.54 123.57 21.71 21.66 47.73 40.18 76.66 55.84 43.4 23.48 93.38 40.58 145.73 51.9 52.35 11.3 107.08 16.8 160.03 16.81 49.47-.01 97.37-4.8 140.38-14.33 21.5-4.77 41.79-10.72 60.46-17.9 18.67-7.19 35.72-15.6 50.74-25.37l-8.72-13.41" fill="#802861"/><path d="M2043.17 2933.61c-69.07 18.96-138.56 32.08-144.4 42.62-16.54 29.85 162.84 104.97 266.26 63.48l-121.86-106.1" fill="#FFF"/><path d="M2122.66 2919.86l8.54-13.54c-3.98-2.51-8.22-4.43-12.55-5.67-4.33-1.24-8.72-1.78-12.93-1.77-5.85 0-11.35.98-16.62 2.35-3.96 1.04-7.81 2.3-11.7 3.68-5.83 2.07-11.74 4.38-18.06 6.67-6.31 2.3-13.02 4.58-20.4 6.6-17.07 4.69-34.24 9.03-50.52 13.08-12.2 3.04-23.91 5.91-34.71 8.64-8.1 2.06-15.69 4.03-22.63 5.95-5.21 1.43-10.05 2.84-14.48 4.24-3.33 1.04-6.43 2.09-9.3 3.14-2.16.8-4.2 1.6-6.13 2.45-2.9 1.28-5.55 2.59-8.2 4.33a30.13 30.13 0 0 0-4.05 3.18c-1.37 1.31-2.83 2.94-4.14 5.29-1 1.79-1.79 3.76-2.31 5.79-.52 2.02-.77 4.1-.77 6.1 0 2.16.28 4.23.75 6.16.91 3.74 2.45 6.93 4.25 9.79 1.7 2.68 3.65 5.09 5.8 7.38 4.04 4.28 8.8 8.19 14.27 12.01 4.79 3.35 10.11 6.6 15.94 9.8 10.2 5.58 21.94 10.95 34.84 15.94 19.35 7.47 41.31 14.05 64.4 18.8 23.09 4.75 47.3 7.67 71.17 7.67 13.56 0 27.01-.94 40.08-3.08 13.07-2.13 25.77-5.46 37.79-10.28 6.74-2.7 12.68-5.71 17.9-9.11 3.92-2.55 7.44-5.32 10.54-8.36 4.64-4.55 8.32-9.76 10.76-15.4 2.45-5.63 3.58-11.62 3.57-17.39 0-6.25-1.27-12.22-3.25-17.79-1.75-4.88-4.05-9.49-6.72-13.9-4.67-7.71-10.45-14.84-16.74-21.53-9.43-10.02-20.04-19.04-29.97-26.67a354.045 354.045 0 0 0-25.88-18.09l-8.54 13.54-8.54 13.52c5.19 3.28 12.33 8.06 20.01 13.79 5.76 4.3 11.83 9.14 17.63 14.27 4.34 3.85 8.52 7.86 12.3 11.9 5.67 6.05 10.39 12.2 13.42 17.68 1.53 2.73 2.63 5.29 3.31 7.53.69 2.24.97 4.15.97 5.75-.01 1.57-.24 2.85-.74 4.18-.38 1-.92 2.05-1.79 3.24-1.3 1.77-3.38 3.87-6.65 6.15-3.27 2.26-7.72 4.67-13.51 6.99-9.48 3.81-19.93 6.59-31.03 8.4-11.1 1.81-22.85 2.66-34.92 2.66-21.72.01-44.44-2.75-66.17-7.31-16.3-3.42-32.04-7.84-46.39-12.81-10.77-3.73-20.76-7.76-29.59-11.87-6.63-3.09-12.61-6.21-17.76-9.26-3.86-2.28-7.26-4.52-10.1-6.61-2.13-1.58-3.94-3.07-5.4-4.41-2.19-2-3.53-3.71-4.01-4.52-.12-.19-.2-.33-.23-.4l-.02-.04-1.06.46 1.1-.36-.04-.1-1.06.46 1.1-.36-4.83 1.58h5.04c0-.83-.15-1.39-.21-1.58l-4.83 1.58h5.04-7.43l7.2 1.85c.16-.65.24-1.3.23-1.85h-7.43l7.2 1.85-7.25-1.86 6.55 3.63c.28-.5.53-1.13.7-1.77l-7.25-1.86 6.55 3.63-9.34-5.18 7.9 7.2c.37-.41.89-1.04 1.44-2.02l-9.34-5.18 7.9 7.2-4.79-4.36 4.09 5.04c.1-.09.34-.28.7-.68l-4.79-4.36 4.09 5.04-1.58-1.94 1.52 1.99.06-.05-1.58-1.94 1.52 1.99-.4-.53.39.54.01-.01-.4-.53.39.54c.01-.02.45-.31 1.2-.7 1.41-.74 3.87-1.8 7.01-2.94 5.53-2.02 13.18-4.33 22.21-6.8 13.56-3.71 30.28-7.82 48.52-12.34 18.25-4.53 38.04-9.48 57.9-14.93 15.14-4.15 27.39-9.11 37.14-12.69 4.87-1.79 9.1-3.23 12.64-4.15 3.55-.94 6.36-1.33 8.54-1.32 1.58 0 2.86.18 4.15.54 1.28.37 2.61.94 4.25 1.96l8.54-13.52" fill="#802861"/><path d="M2000.41 2835.94c-69.18 18.56-138.74 31.29-144.64 41.79-16.71 29.76 162.24 105.9 265.89 65.01l-121.25-106.8" fill="#FFF"/><path d="M2079.97 2822.64l8.62-13.48c-4.01-2.57-8.29-4.53-12.66-5.79-4.38-1.26-8.81-1.81-13.07-1.81-5.82.01-11.28.97-16.54 2.32-3.94 1.01-7.79 2.26-11.67 3.61-5.82 2.03-11.72 4.3-18.02 6.54-6.31 2.25-13.01 4.48-20.37 6.46-17.09 4.58-34.28 8.83-50.58 12.79-12.23 2.96-23.95 5.77-34.77 8.44-8.11 2.01-15.71 3.94-22.67 5.81-5.21 1.41-10.06 2.79-14.5 4.16a217.01 217.01 0 0 0-9.32 3.09c-2.16.79-4.2 1.58-6.13 2.41-2.91 1.26-5.57 2.56-8.23 4.29-1.33.87-2.68 1.86-4.07 3.16-1.38 1.3-2.85 2.92-4.17 5.26-1.02 1.81-1.83 3.8-2.36 5.85-.53 2.05-.79 4.14-.78 6.17 0 2.16.28 4.24.74 6.17.91 3.75 2.46 6.95 4.26 9.82 1.71 2.69 3.66 5.12 5.82 7.43 4.05 4.31 8.84 8.26 14.34 12.13 4.81 3.39 10.17 6.69 16.04 9.93 10.26 5.66 22.07 11.12 35.06 16.19 19.47 7.59 41.56 14.29 64.78 19.13s47.55 7.82 71.52 7.82c13.28 0 26.44-.92 39.24-2.98 12.81-2.07 25.25-5.29 37.05-9.94 6.78-2.68 12.76-5.66 18.03-9.05 3.94-2.54 7.48-5.31 10.6-8.35 4.68-4.55 8.39-9.77 10.84-15.43 2.46-5.65 3.6-11.66 3.59-17.45 0-6.24-1.25-12.19-3.22-17.75-1.73-4.88-4.02-9.48-6.66-13.9-4.64-7.71-10.38-14.86-16.62-21.57-9.37-10.04-19.91-19.1-29.77-26.77-9.87-7.67-19.06-13.93-25.73-18.19l-17.24 26.96c5.17 3.3 12.27 8.11 19.9 13.87 5.73 4.32 11.76 9.18 17.51 14.34 4.32 3.86 8.47 7.89 12.23 11.94 5.63 6.07 10.32 12.24 13.34 17.74 1.52 2.74 2.61 5.3 3.3 7.55.69 2.26.96 4.18.96 5.78-.01 1.58-.24 2.87-.74 4.21-.38 1-.93 2.04-1.8 3.23-1.31 1.77-3.38 3.86-6.67 6.13-3.29 2.25-7.77 4.65-13.59 6.94-9.32 3.68-19.54 6.36-30.4 8.12-10.86 1.75-22.35 2.57-34.15 2.57-21.78 0-44.6-2.81-66.45-7.45-16.38-3.48-32.22-7.99-46.67-13.04-10.83-3.79-20.89-7.9-29.79-12.08-6.67-3.13-12.7-6.31-17.9-9.4-3.89-2.32-7.32-4.59-10.19-6.72-2.15-1.6-3.99-3.12-5.46-4.48-2.22-2.04-3.59-3.78-4.08-4.62a4.18 4.18 0 0 1-.24-.42l-.02-.05-.31.13.31-.12v-.01l-.31.13.31-.12-4.31 1.63h4.55c0-.97-.21-1.55-.24-1.63l-4.31 1.63h4.55-7.42l7.17 1.86c.17-.65.25-1.31.25-1.86h-7.42l7.17 1.86-7.24-1.88 6.53 3.67c.28-.51.55-1.14.71-1.79l-7.24-1.88 6.53 3.67-9.31-5.23 7.86 7.25c.37-.41.89-1.04 1.45-2.02l-9.31-5.23 7.86 7.25-4.76-4.39 4.05 5.06c.11-.09.35-.28.71-.67l-4.76-4.39 4.05 5.06-1.57-1.96 1.51 2.01.06-.05-1.57-1.96 1.51 2.01-.39-.53.38.54.01-.01-.39-.53.38.54c.02-.02.46-.31 1.21-.69 1.42-.74 3.88-1.78 7.03-2.91 5.54-1.98 13.2-4.25 22.24-6.67 13.58-3.63 30.33-7.65 48.59-12.06 18.28-4.42 38.1-9.26 57.99-14.59 15.1-4.06 27.34-8.92 37.09-12.44 4.87-1.76 9.11-3.18 12.65-4.09 3.56-.92 6.38-1.31 8.57-1.31 1.62.01 2.91.19 4.21.56 1.3.38 2.64.95 4.28 2l8.62-13.48" fill="#802861"/><path d="M2103.16 2723.17c-20.75-13.93-41.08 2.03-79.85 11.49-69.59 16.98-139.41 28.12-145.55 38.49-17.38 29.36 159.78 109.57 264.34 71.04 82.48-30.4-8.38-100.49-38.94-121.02" fill="#FFF"/><path d="M2103.16 2723.17l8.92-13.28c-4.13-2.78-8.58-4.91-13.14-6.26-4.55-1.36-9.17-1.94-13.6-1.93-5.68 0-11.03.89-16.21 2.14-7.77 1.89-15.25 4.59-23.29 7.33s-16.62 5.58-26.32 7.95c-17.19 4.19-34.48 8.04-50.86 11.63-12.29 2.69-24.08 5.22-34.95 7.65-8.16 1.82-15.8 3.58-22.8 5.29-5.24 1.29-10.12 2.56-14.59 3.83-3.36.95-6.48 1.91-9.39 2.88-2.18.74-4.23 1.48-6.19 2.27-2.94 1.19-5.62 2.43-8.32 4.1-1.35.84-2.72 1.8-4.14 3.06-1.41 1.27-2.91 2.86-4.29 5.17-1.11 1.87-2 3.94-2.57 6.08-.58 2.14-.85 4.33-.85 6.44 0 2.19.28 4.29.75 6.23.92 3.79 2.48 7.02 4.29 9.94 1.72 2.74 3.7 5.22 5.89 7.6 4.1 4.45 8.98 8.57 14.6 12.63 4.91 3.54 10.4 7.02 16.4 10.44 10.5 5.98 22.6 11.79 35.89 17.19 19.93 8.1 42.52 15.28 66.22 20.49 23.7 5.19 48.5 8.41 72.85 8.41 12.17 0 24.24-.8 36-2.61 11.76-1.81 23.23-4.61 34.17-8.64 6.96-2.57 13.1-5.47 18.5-8.81 4.05-2.5 7.7-5.25 10.9-8.29 4.81-4.56 8.63-9.82 11.14-15.56 2.52-5.72 3.68-11.82 3.67-17.68-.01-6.17-1.21-12.06-3.12-17.6-1.67-4.85-3.88-9.45-6.44-13.87-4.49-7.74-10.06-14.94-16.13-21.72-9.1-10.16-19.36-19.36-28.97-27.18-9.62-7.81-18.58-14.22-25.1-18.6l-8.92 13.28-8.93 13.28c5.06 3.4 11.98 8.31 19.42 14.19 5.58 4.41 11.46 9.36 17.06 14.6 4.2 3.93 8.25 8.01 11.91 12.12 5.49 6.16 10.07 12.39 13.02 17.96 1.49 2.77 2.57 5.37 3.24 7.65.68 2.29.96 4.25.96 5.89-.01 1.65-.26 2.97-.76 4.31-.39 1-.94 2.04-1.82 3.21-1.32 1.75-3.42 3.82-6.78 6.05-3.35 2.21-7.93 4.54-13.91 6.74-8.64 3.19-18.04 5.52-27.97 7.04-9.92 1.53-20.39 2.24-31.14 2.24-22 .01-45.2-3.01-67.47-8a385.294 385.294 0 0 1-47.71-13.97c-11.1-4.06-21.42-8.44-30.57-12.9-6.86-3.34-13.07-6.72-18.43-10.01-4.02-2.47-7.56-4.88-10.54-7.14-2.23-1.7-4.14-3.32-5.69-4.78-2.32-2.18-3.79-4.05-4.36-5.01-.14-.24-.24-.42-.28-.52l-.04-.08-.01-.01-3.96 1.49h4.17c0-.95-.2-1.47-.21-1.49l-3.96 1.49h4.17-7.35l7.09 1.92c.18-.68.26-1.37.26-1.92h-7.35l7.09 1.92-7.24-1.96 6.46 3.82c.31-.52.6-1.19.78-1.86l-7.24-1.96 6.46 3.82-9.19-5.44 7.69 7.42c.38-.4.92-1.01 1.5-1.98l-9.19-5.44 7.69 7.42-4.66-4.49 3.94 5.15c.11-.08.35-.27.72-.66l-4.66-4.49 3.94 5.15-1.52-1.99 1.46 2.03.06-.04-1.52-1.99 1.46 2.03-.39-.53.38.54.01-.01-.39-.53.38.54c.01-.01.46-.29 1.22-.66 1.43-.7 3.92-1.69 7.1-2.74 5.58-1.86 13.29-3.95 22.38-6.16 13.66-3.33 30.49-6.96 48.86-10.96 18.37-4 38.29-8.38 58.3-13.26 14.93-3.65 27.11-8.14 36.86-11.42 4.87-1.65 9.12-2.98 12.69-3.85 3.59-.87 6.46-1.25 8.69-1.24 1.76 0 3.13.21 4.48.6 1.34.41 2.72 1.02 4.41 2.15l8.93-13.28" fill="#802861"/><path d="M2086.17 3023.1c134.84 87.72 475.19 73.67 613.97-64.87 231.59-231.16 64.89-443.42-106.7-426.36-166.42 16.54-83.59 43.58-473.19 164.41-172.93 53.64-112.26 275.96-34.08 326.82" fill="#F0CC9F"/><path d="M2329.07 3062.11h-.05c-47.38 0-93.13-4.63-133.45-13.57-20.16-4.47-38.95-10.01-55.89-16.53-16.94-6.52-32.03-14.02-44.79-22.32l-8.72 13.41 8.72-13.41c-8.35-5.42-17.2-13.83-25.51-24.57-12.51-16.1-23.8-37.35-31.81-60.83-8.03-23.48-12.8-49.19-12.79-74.22 0-8.23.51-16.38 1.58-24.37 14.45 36.96 36.35 67.69 59.82 82.96 55.55 36.14 145.99 55 242.82 55 138.23 0 289.52-38.42 371.14-119.88 47.81-47.74 78.65-94.66 95.96-138.91 1.12 8.27 1.71 16.78 1.71 25.53-.01 31.2-7.41 65.41-24.73 101.86-17.31 36.43-44.58 75.06-84.24 114.65-19.09 19.06-42.58 35.89-69.29 50.35-40.05 21.68-87.31 37.98-137.25 48.76-49.93 10.79-102.52 16.09-153.23 16.09" fill="#CC998B"/><path d="M2086.17 3023.1l-8.73 13.41c15.02 9.77 32.08 18.18 50.75 25.37 28 10.77 59.64 18.79 93.58 24.16 33.93 5.36 70.15 8.07 107.25 8.07 70.6-.01 144.37-9.77 211.44-30.08 33.53-10.16 65.39-22.97 94.32-38.63 28.93-15.66 54.96-34.18 76.67-55.84 41.83-41.75 71.39-83.29 90.54-123.57 19.14-40.26 27.82-79.29 27.82-115.59 0-31.47-6.53-60.84-18.12-87.02-8.69-19.65-20.21-37.51-33.9-53.24-20.54-23.58-45.94-42.37-74.11-55.28-28.17-12.91-59.13-19.95-90.8-19.95-6.98 0-14 .34-21.02 1.04-21.08 2.09-38.38 4.37-53.35 7.02-13.09 2.33-24.4 4.94-34.78 7.97-9.08 2.65-17.43 5.61-25.56 8.9-7.12 2.88-14.07 6-21.25 9.39-12.57 5.93-25.86 12.67-42.35 20.56-24.72 11.84-56.71 26.36-103.97 44.59-47.25 18.23-109.72 40.14-195.08 66.62-22.04 6.83-40.93 16.34-56.76 28.02-11.88 8.74-22.03 18.69-30.49 29.51-12.71 16.23-21.62 34.37-27.3 53.28-5.69 18.92-8.19 38.62-8.19 58.26.01 19.37 2.43 38.7 6.72 57.3 6.45 27.9 17.07 54.14 30.38 76.45 6.66 11.15 14.01 21.32 21.94 30.22 7.94 8.88 16.47 16.51 25.62 22.47l8.73-13.41 8.72-13.41c-8.35-5.42-17.2-13.83-25.51-24.57-12.51-16.1-23.8-37.35-31.81-60.83-8.03-23.48-12.8-49.19-12.79-74.22 0-15.04 1.71-29.84 5.37-43.83 2.74-10.5 6.58-20.55 11.61-29.97 7.55-14.15 17.76-26.92 31.32-37.9 13.58-10.97 30.58-20.18 51.91-26.81 97.71-30.3 165.99-54.78 216.08-74.75 37.56-14.98 64.92-27.43 86.59-37.8 16.25-7.78 29.29-14.36 40.92-19.9 8.74-4.15 16.67-7.71 24.7-10.84 12.04-4.68 24.35-8.45 40.29-11.77 15.93-3.31 35.47-6.13 61.45-8.71 5.97-.59 11.93-.88 17.86-.88 23.92 0 47.48 4.73 69.35 13.55 32.81 13.21 61.77 35.6 82.43 64.65a178.094 178.094 0 0 1 24.31 48.34c5.7 17.62 8.84 36.66 8.84 56.95-.01 31.2-7.41 65.41-24.73 101.86-17.31 36.43-44.58 75.06-84.24 114.65-19.09 19.06-42.58 35.89-69.29 50.35-40.05 21.68-87.31 37.98-137.25 48.76-49.94 10.79-102.55 16.09-153.28 16.09-47.38 0-93.13-4.63-133.45-13.57-20.16-4.47-38.95-10.01-55.89-16.53-16.94-6.52-32.03-14.02-44.79-22.32l-8.72 13.41" fill="#802861"/><path d="M1673.28 1866.82l-108.08 343.96s-62.16 200.72-206.04 313.72c-46.6 36.64-101.8 64.04-166.24 72.44-437.04 56.88-293.36-271.04-293.36-271.04s214.36-28.12 286.4-52.72c97.84-33.44 141.4-184.56 285.28-301.04a566.99 566.99 0 0 1 56.4-40.16c4.28-2.68 8.64-5.28 13.04-7.88 38-22.24 81.68-41.84 132.6-57.28" fill="#F0CC9F"/><path d="M1086.28 2587.38c-2.74-.02-5.46-.28-8.19-.41-10.89-.73-21.89-.94-32.56-2.68-5.36-.73-10.77-1.3-16.09-2.15l-15.74-3.31c-1.91-.46-3.83-.94-5.73-1.43 12.43-2.51 20.77-7.7 27.65-14.64 42.45-42.86 11.57-117.82-28.36-119.95 1.91-9.6 1.95-18.75-.09-26.6-.01-.02-.01-.03-.01-.04-.01-.03-.02-.05-.02-.07-1.74-6.62-4.95-12.31-9.764-16.59a1.267 1.267 0 0 1-.13-.11c-1.16-1.05-2.282-2.09-3.406-3.14-.002.01-.003.01-.005.01-21.907-20.7-32.087-42.61-37.229-62.26 6.806-.99 13.597-2 20.397-3.01 20.667 9.29 37.397 21.17 49.557 31.42 2.39 2.02 4.61 3.98 6.64 5.84 4.55 4.17 10.3 6.24 16.04 6.24 6.16 0 12.3-2.39 16.92-7.16l1.04-1.07c7.14-7.33 15.15-15.11 21.38-19.96 11.85-9.23 22.38-16.28 31.11-21.56 7.74-4.68 11.7-12.81 11.54-20.9 1.13-.24 2.26-.48 3.38-.72 6.06-1.38 12.1-2.75 18.14-4.19 11.39 53.18-71.98 78.58-71.98 128.39 0 53.4 24.72 72.6 70.47 82.35 18.78 4 37.77 5.96 56.66 5.96 61.31 0 121.66-20.61 170.77-58.92l1.29-1.02c40.2-31.56 72.27-64.19 97.61-94.82-16.02 27.18-34.23 52.99-54.05 77.27-13.86 17.15-28.93 33.2-44.82 48.24-15.81 15.17-32.9 28.82-50.83 41.05-17.82 12.44-36.96 22.71-56.72 31.3-19.67 8.91-40.51 14.67-61.5 19.13l-15.89 2.71c-5.28.94-10.98 1.28-16.45 1.95l-16.58 1.78-8.29.9-8.28.49-16.57.96c-4.9.28-9.79.65-14.67.65-.63 0-1.25 0-1.88-.01l-16.51.05-8.25.03" fill="#CC998B"/><path d="M1674.82 1871.92c-34.89 18.67-69.33 34.97-102.63 53.47-33.13 18.69-64.78 39.64-94.52 63.31-7.54 5.77-14.54 12.24-21.84 18.34-6.89 6.57-14.07 12.84-20.72 19.69-13.71 13.27-26.42 27.62-38.92 42.17-24.77 29.35-47.53 60.61-70.52 92.38-11.52 15.87-23.24 31.84-35.8 47.5-12.59 15.62-26.05 31.04-41.77 44.95-15.65 13.86-33.97 26.19-54.79 33.72-20 6.97-39.24 11.23-58.7 15.68-77.56 16.4-154.996 27.91-232.964 38.63l12.573-9.45c-1.825 4.29-3.783 9.66-5.469 14.64a308.4 308.4 0 0 0-4.783 15.42c-2.992 10.37-5.292 20.92-7.151 31.48-3.551 21.13-5.067 42.57-2.663 63.22 2.28 20.62 8.165 40.46 18.449 57.58 10.318 17.11 25.203 31.1 42.658 41.74 17.465 10.75 37.754 17.45 58.44 22.44l15.74 3.31c5.32.85 10.73 1.42 16.09 2.15 10.67 1.74 21.67 1.95 32.56 2.68 2.73.13 5.45.39 8.19.41l8.25-.03 16.51-.05c5.49.11 11.02-.32 16.55-.64l16.57-.96 8.28-.49 8.29-.9 16.58-1.78c5.47-.67 11.17-1.01 16.45-1.95l15.89-2.71c20.99-4.46 41.83-10.22 61.5-19.13 19.76-8.59 38.9-18.86 56.72-31.3 17.93-12.23 35.02-25.88 50.83-41.05 15.89-15.04 30.96-31.09 44.82-48.24 27.86-34.12 52.54-71.3 72.42-111l30.19-59.4c5.18-9.87 10.32-19.77 16.03-29.5 5.56-9.76 11.38-19.57 17.95-29.04l.12-.16a5.525 5.525 0 0 1 7.69-1.4c1.59 1.1 2.42 2.92 2.38 4.72-.38 12.1-2.43 23.54-5.08 34.89-2.64 11.32-6.03 22.42-10.08 33.24-8.04 21.67-17.93 42.62-29.41 62.7-23.16 39.98-47.8 79.32-77.47 115.23-14.62 18.09-30.61 35.17-47.62 51.25-16.89 16.19-35.3 30.94-54.78 44.22-38.82 26.7-83.32 46.2-130.06 55.37l-17.6 3c-5.88 1.02-11.51 1.35-17.28 2.06l-17.2 1.85-8.61.92-8.67.52-17.35 1.01c-5.79.33-11.56.77-17.4.66l-17.47.06-8.73.02c-2.92-.02-5.85-.3-8.78-.43-11.7-.77-23.39-1.03-35.12-2.89-5.86-.8-11.73-1.43-17.58-2.37l-17.52-3.67c-23.195-5.6-46.518-13.21-67.806-26.25-21.205-12.85-40.331-30.71-53.437-52.5-13.122-21.79-20.239-46.41-22.907-70.73-2.792-24.42-1.001-48.63 2.942-72.11 2.059-11.74 4.607-23.35 7.892-34.75a336.437 336.437 0 0 1 5.279-17.03c1.967-5.74 3.849-11.03 6.456-17.17l3.48-8.2 9.094-1.24c77.109-10.58 154.667-22.15 230.297-38.16 18.68-4.24 37.73-8.59 54.69-14.53 16.06-5.82 30.87-15.58 44.47-27.61 13.61-12.03 26.05-26.16 37.99-41 11.93-14.87 23.39-30.47 34.86-46.27 22.9-31.63 46.23-63.73 71.97-94.22 25.94-30.3 53.65-59.52 84.55-85.42 30.69-26.08 64.51-48.77 100.71-66.44 36.08-17.82 74.73-30.48 114.7-34.67a5.436 5.436 0 0 1 3.14 10.19l-.04.02" fill="#802861"/><path d="M1066.17 2367.33c-8.92 9.21-23.53 9.57-32.99.91-22.34-20.44-66.547-52.22-126.315-53.23-47.494-.8 34.386-78.82 109.435-72.59 49.83 4.13 85.35 26.02 106.6 43.97 12.39 10.46 10.68 29.97-3.21 38.36-8.73 5.28-19.26 12.33-31.11 21.56-6.53 5.09-15.01 13.39-22.41 21.02" fill="#FFF"/><path d="M1049.24 2374.5c-5.74 0-11.49-2.07-16.04-6.24a221.42 221.42 0 0 0-6.64-5.84c2.38 2.02 4.59 3.97 6.62 5.82a23.701 23.701 0 0 0 16.06 6.25c6.17 0 12.31-2.39 16.93-7.16l1.03-1.06-1.04 1.07c-4.62 4.77-10.76 7.16-16.92 7.16" fill="#B3757C"/><path d="M898.686 2292.73c4.996-6.66 12.932-14.06 22.874-21.11h.043c-9.945 7.04-17.88 14.42-22.884 21.07-.011.01-.023.03-.033.04" fill="#58A8CC"/><path d="M1129.54 2295.51c-1.37-3.39-3.57-6.53-6.64-9.12-.29-.25-.59-.5-.89-.75.3.23.61.5.91.74 3.06 2.6 5.26 5.74 6.62 9.13" fill="#802861"/><path d="M1049.24 2374.49c-5.74 0-11.5-2.07-16.06-6.25-2.03-1.85-4.24-3.8-6.62-5.82-16.4-13.84-41.078-30.58-72.509-40.02-3.975-21.86-2.861-39.63-7.535-47.66 44.201 8.82 77.184 33.18 95.524 49.92 4.55 4.19 10.3 6.27 16.04 6.27 6.16 0 12.3-2.4 16.92-7.19 7.4-7.6 15.88-15.92 22.4-21 8.96-6.96 17.12-12.68 24.32-17.32.1.07.19.14.29.22.3.25.6.5.89.75 3.07 2.59 5.27 5.73 6.64 9.12 4.14 10.32.58 22.91-9.86 29.23-8.72 5.28-19.24 12.32-31.12 21.56-6.22 4.85-14.22 12.64-21.36 19.97l-1.03 1.06c-4.62 4.77-10.76 7.16-16.93 7.16m-150.521-81.8c5.004-6.65 12.939-14.03 22.884-21.07 2.44.13 4.853.31 7.238.53-8.628 3.16-19.576 10.04-30.122 20.54" fill="#D5BDCC"/><path d="M1064.63 2368.93l-11.53-11.09c-.55.57-1.14.95-1.79 1.23-.65.27-1.36.41-2.06.41-.65 0-1.27-.12-1.84-.34a4.86 4.86 0 0 1-1.58-.99c-11.7-10.94-29.48-25.3-52.829-37.22-11.671-5.95-24.737-11.29-39.097-15.21-14.356-3.92-30.011-6.42-46.768-6.71-1.527-.02-2.506-.18-2.846-.27l-.125-.03-.012-.01-1.162 3.53 1.994-3.09c-.521-.34-.83-.43-.832-.44l-1.162 3.53 1.994-3.09-4.111 6.37 5.506-5.2a7.447 7.447 0 0 0-1.395-1.17l-4.111 6.37 5.506-5.2-6.545 6.18 8.433-3.14c-.401-1.1-1.126-2.25-1.888-3.04l-6.545 6.18 8.433-3.14-7.39 2.76h7.915c.003-.64-.109-1.65-.525-2.76l-7.39 2.76h7.915-4.666l4.608.78c.023-.14.058-.4.058-.78h-4.666l4.608.78-1.751-.3 1.727.42.024-.12-1.751-.3 1.727.42-.06-.01.06.01-.06-.01.06.01c.009-.04.143-.46.476-1.11.616-1.23 1.926-3.24 3.876-5.54 3.407-4.05 8.715-9 15.299-13.88 9.882-7.34 22.646-14.59 36.462-19.86 6.908-2.64 14.08-4.79 21.289-6.27 7.21-1.48 14.457-2.29 21.527-2.29 2.47 0 4.91.1 7.33.3h.01c24.06 2 44.32 8.46 61.05 16.53a174.212 174.212 0 0 1 39.4 26.18c.63.57.98 1.09 1.24 1.67.26.58.4 1.24.4 1.95 0 .89-.24 1.81-.67 2.59-.44.78-1.02 1.42-1.97 1.99-9.83 5.77-21.95 13.72-35.68 24.42-2.11 1.64-4.23 3.44-6.39 5.35-3.23 2.87-6.55 6.01-9.81 9.22-3.26 3.2-6.47 6.48-9.46 9.58l11.54 11.09 11.54 11.08c3.75-3.9 7.86-8.06 11.78-11.81 1.96-1.87 3.87-3.64 5.65-5.22 1.78-1.58 3.43-2.97 4.81-4.05 12.6-9.81 23.56-16.98 32.23-22.07 5.94-3.49 10.64-8.45 13.74-14.05 3.1-5.6 4.68-11.83 4.69-18.12 0-4.99-1.01-10.03-3.09-14.78a36.72 36.72 0 0 0-9.37-12.83 205.834 205.834 0 0 0-46.67-31.01c-19.83-9.58-44.02-17.26-72.32-19.6-3.33-.28-6.67-.41-9.98-.41-16.333.01-32.262 3.17-47.04 8.09-11.086 3.71-21.536 8.41-31.059 13.67-7.142 3.94-13.762 8.19-19.743 12.59-4.486 3.3-8.612 6.69-12.336 10.13-2.793 2.58-5.361 5.18-7.688 7.83-3.488 3.98-6.451 8-8.783 12.39-1.161 2.2-2.165 4.51-2.924 7.03-.752 2.52-1.27 5.27-1.274 8.32 0 1.74.177 3.57.6 5.43.369 1.63.928 3.28 1.686 4.87a23.217 23.217 0 0 0 5.483 7.28 25.349 25.349 0 0 0 5.288 3.62c2.74 1.41 5.511 2.27 8.281 2.84 2.774.55 5.567.81 8.463.86 13.912.24 26.878 2.3 38.881 5.58 17.995 4.91 33.829 12.57 47.077 20.82 13.248 8.23 23.878 17.05 31.418 24.1 3.54 3.32 7.63 5.84 11.93 7.49 4.31 1.66 8.84 2.48 13.35 2.48 4.9 0 9.79-.96 14.39-2.88 4.59-1.92 8.9-4.81 12.52-8.59l-11.53-11.08" fill="#802861"/><path d="M968.502 2504.8s-72.104 20.41-98.42-64.96c-36.131-117.21 52.309-175.57 71.586-169.24 19.277 6.33-7.459 72.83 55.708 128.91 23.334 20.72 9.064 74.84-28.874 105.29" fill="#FFF"/><path d="M1007.26 2442.81h-.01c1.91-9.6 1.95-18.75-.08-26.6 2.04 7.85 2 17 .09 26.6m-.1-26.64c-.01-.03-.02-.05-.02-.07 0 .02.01.04.02.07m-9.914-16.77a144.95 144.95 0 0 1-3.411-3.13c.002 0 .003 0 .005-.01 1.124 1.05 2.246 2.09 3.406 3.14" fill="#B3757C"/><path d="M908.982 2454.68c-6.624 0-13.755-.14-21.427-.45a238.69 238.69 0 0 1-12.561-.84c-1.772-4.19-3.417-8.71-4.914-13.57-11.24-36.44-10.4-67.2-3.36-92.08.96 4.04 2.08 8.12 3.36 12.32 17.799 57.76 56.546 67.1 79.766 67.1 11.116 0 18.674-2.14 18.674-2.14 10.276-8.24 18.794-18.19 25.315-28.75a144.95 144.95 0 0 0 3.411 3.13c.038.03.076.07.115.1 4.819 4.28 8.039 9.98 9.779 16.6 0 .02.01.04.02.07 0 .01 0 .02.01.04 2.03 7.85 1.99 17 .08 26.6-.57-.04-1.15-.05-1.74-.05-16.593 0-35.154 11.92-96.528 11.92" fill="#D5BDCC"/><path d="M968.502 2504.8l-4.358-15.39 2.348 8.29-2.246-8.32-.102.03 2.348 8.29-2.246-8.32h-.008c-.268.08-6.165 1.57-14.382 1.56-4.733 0-10.222-.49-15.906-1.9a57.532 57.532 0 0 1-12.997-4.91c-6.524-3.44-13.02-8.42-19.162-16.13-6.124-7.72-11.906-18.25-16.419-32.87-5.584-18.12-7.869-34.4-7.872-48.95.006-17.12 3.159-31.88 8.093-44.56 3.704-9.5 8.426-17.82 13.62-24.96a105.164 105.164 0 0 1 12.218-14.02c6.236-5.98 12.524-10.38 17.672-13.09 2.564-1.36 4.84-2.29 6.535-2.82.845-.26 1.542-.42 2.023-.51.241-.04.426-.06.546-.07l.129-.01h.024l-.005-.18v.18h.005l-.005-.18v.18-5.47l-1.689 5.13c1.101.35 1.633.33 1.689.34v-5.47l-1.689 5.13.179.06-.169-.06 2.46-7.49-4.085 6.74c.533.33 1.111.59 1.625.75l2.46-7.49-4.085 6.74 4.086-6.74-5.44 5.71c.366.35.836.72 1.354 1.03l4.086-6.74-5.44 5.71 3.505-3.68-4.566 2.35c.041.09.341.64 1.061 1.33l3.505-3.68-4.566 2.35.484-.25-.492.24.008.01.484-.25-.492.24c.005 0 .174.39.367 1.11.379 1.35.819 3.83 1.186 7.01.33 2.79.632 6.13.981 9.88.613 6.55 1.371 14.34 2.851 22.92 2.22 12.86 6.096 27.56 13.641 42.7 7.528 15.15 18.751 30.68 35.099 45.18a13.7 13.7 0 0 1 2.327 2.69c1.039 1.56 1.937 3.53 2.585 6 .648 2.47 1.028 5.43 1.026 8.77.004 4.51-.695 9.69-2.164 15.17-2.194 8.23-6.119 17.09-11.564 25.46-5.439 8.38-12.381 16.26-20.477 22.75l10.016 12.48-4.358-15.39 4.358 15.39 10.016 12.48c14.601-11.74 25.962-26.28 33.832-41.56 3.93-7.64 6.99-15.48 9.09-23.33 2.1-7.86 3.25-15.72 3.25-23.45 0-7.63-1.12-15.16-3.78-22.28-1.33-3.56-3.05-7-5.2-10.23a45.627 45.627 0 0 0-7.71-8.88c-7.1-6.31-12.83-12.65-17.523-18.96-8.203-11.05-13.276-21.99-16.642-32.58-2.518-7.93-4.051-15.66-5.097-23.01-.786-5.51-1.297-10.79-1.764-15.82-.352-3.78-.677-7.4-1.111-10.94-.328-2.65-.714-5.25-1.273-7.88-.422-1.97-.939-3.96-1.662-6.01a33.55 33.55 0 0 0-2.061-4.72c-1.281-2.4-3.042-4.91-5.477-7.13a24.184 24.184 0 0 0-4.061-3 24.832 24.832 0 0 0-4.668-2.1l-.179-.06.189.07c-2.993-.98-5.748-1.27-8.316-1.27-2.569 0-4.984.3-7.36.78-4.444.91-8.786 2.46-13.254 4.55-7.788 3.65-15.94 8.98-24.052 16.05-6.074 5.29-12.097 11.57-17.745 18.84-8.467 10.91-16.088 24.08-21.589 39.45-5.503 15.36-8.859 32.91-8.855 52.37-.002 17.92 2.836 37.44 9.292 58.37 4.892 15.88 11.392 28.94 19.031 39.51 5.722 7.92 12.08 14.43 18.725 19.64a88.65 88.65 0 0 0 30.43 15.53c9.906 2.84 19.146 3.7 26.878 3.71 13.151-.02 22.011-2.48 23.004-2.74l3.126-.89 2.532-2.03-10.016-12.48" fill="#802861"/><path d="M1035.62 2562.76c-14.41 14.55-35.24 21.39-86.69 12.03-105.191-19.14-183.78-92.18-158.412-119.22 17.121-18.25 52.483-3.12 97.037-1.34 78.761 3.16 99.571-11.47 117.955-11.47 40.77 0 73.18 76.52 30.11 120" fill="#FFF"/><path d="M928.542 2570.34c-.06-.01-.119-.03-.18-.04.056.01.125.03.18.04" fill="#802861"/><path d="M915.198 2566.63c-56.655-17.15-101.644-48.53-120.212-75.06 18.593 26.52 63.582 57.89 120.204 75.05.003.01.004.01.008.01" fill="#58A8CC"/><path d="M928.348 2570.29a298.623 298.623 0 0 1-13.15-3.66c-.004 0-.005 0-.008-.01 4.323 1.31 8.706 2.54 13.158 3.67" fill="#802861"/><path d="M989.176 2579.07c-10.884 0-24.046-1.34-40.256-4.29a293.988 293.988 0 0 1-20.378-4.44c-.055-.01-.124-.03-.18-.04-.006 0-.008 0-.014-.01a299.018 299.018 0 0 1-13.158-3.67c-56.622-17.16-101.611-48.53-120.204-75.05-9.332-13.34-11.992-25.45-6.106-33.91 27.84 28.08 80.281 57.76 141.84 68.96 16.195 2.95 29.358 4.29 40.24 4.29 23.685 0 36.57-6.35 46.44-16.33 15.48-15.64 21.24-35.56 20.28-54.64 21.16 25.12 28.28 72.16-2.08 102.8-9.87 9.98-22.74 16.33-46.424 16.33" fill="#D5BDCC"/><path d="M1035.62 2562.76l-11.37-11.26c-1.84 1.86-3.67 3.41-5.66 4.74-2.98 1.99-6.32 3.59-10.98 4.83-4.64 1.22-10.619 2.01-18.436 2.01-9.568 0-21.844-1.2-37.38-4.03-21.691-3.95-42.263-10.34-60.843-18.17-13.934-5.87-26.746-12.55-38.05-19.57-8.477-5.26-16.106-10.72-22.715-16.13-4.957-4.06-9.34-8.1-13.073-11.99-5.605-5.82-9.73-11.35-12.208-15.87-1.245-2.26-2.078-4.25-2.561-5.84-.489-1.59-.623-2.76-.62-3.46.005-.66.092-.91.133-1.03.055-.12.061-.17.328-.47h.001a8.505 8.505 0 0 1 1.876-1.53c1.03-.63 2.385-1.2 4.42-1.64 2.02-.44 4.688-.7 7.93-.7 3.705 0 8.137.34 13.123.92 7.486.87 16.203 2.28 25.838 3.62 9.64 1.33 20.212 2.57 31.54 3.03 7.881.32 15.221.46 22.071.46 15.858 0 29.1-.77 40.31-1.95 8.406-.88 15.668-2 21.985-3.17 9.466-1.75 16.831-3.62 22.445-4.91 2.805-.65 5.158-1.14 7.096-1.45 1.94-.31 3.44-.44 4.69-.44 1.73 0 3.44.26 5.25.82 1.58.48 3.23 1.2 4.92 2.18 2.95 1.71 6.04 4.24 8.95 7.52 4.38 4.92 8.32 11.51 11.06 18.93 2.76 7.42 4.33 15.65 4.32 23.8 0 7.16-1.19 14.26-3.73 20.9-2.54 6.66-6.4 12.89-12.03 18.59l22.74 22.52c8.81-8.89 15.15-19.09 19.19-29.7 4.05-10.61 5.84-21.6 5.83-32.31 0-10.63-1.74-20.99-4.84-30.67-2.33-7.25-5.43-14.13-9.22-20.45a85.975 85.975 0 0 0-9.69-13.19c-5.42-6.03-11.71-11.18-18.89-14.92-3.59-1.87-7.41-3.38-11.41-4.42s-8.18-1.6-12.45-1.6c-3.03 0-5.931.27-8.72.68-4.889.73-9.449 1.84-14.425 3-7.452 1.76-15.931 3.76-27.566 5.38-11.616 1.62-26.354 2.86-45.815 2.86-6.404 0-13.315-.13-20.788-.43-13.039-.52-25.579-2.31-37.496-4.06-5.961-.87-11.77-1.74-17.461-2.4-5.693-.66-11.268-1.13-16.827-1.14-3.242.01-6.482.17-9.737.58-4.872.62-9.818 1.82-14.62 3.98-4.794 2.15-9.389 5.33-13.204 9.41h.001c-2.984 3.17-5.375 6.95-6.905 11-1.543 4.04-2.228 8.29-2.223 12.4.001 3.5.479 6.9 1.294 10.2 1.539 6.18 4.218 11.99 7.679 17.67 3.037 4.97 6.7 9.84 10.924 14.67 7.393 8.43 16.51 16.73 27.127 24.75 15.922 12.03 35.226 23.41 57.072 33.04 21.844 9.61 46.228 17.45 72.247 22.18 16.859 3.06 30.909 4.54 43.107 4.55 6.635 0 12.726-.45 18.386-1.35 4.25-.68 8.25-1.62 12.03-2.83 5.66-1.81 10.81-4.24 15.37-7.13 4.57-2.9 8.55-6.24 12.03-9.75l-11.37-11.26" fill="#802861"/><path d="M2326.72 1866.82l108.08 343.96s62.16 200.72 206.04 313.72c46.6 36.64 101.8 64.04 166.24 72.44 437.04 56.88 293.36-271.04 293.36-271.04s-214.36-28.12-286.4-52.72c-97.84-33.44-141.4-184.56-285.28-301.04a566.99 566.99 0 0 0-56.4-40.16c-4.28-2.68-8.64-5.28-13.04-7.88-38-22.24-81.68-41.84-132.6-57.28" fill="#F0CC9F"/><path d="M2913.72 2587.38l-8.26-.03-16.5-.05c-.63.01-1.25.01-1.88.01-4.88 0-9.77-.37-14.67-.65l-16.57-.96-8.28-.49-8.29-.9-16.58-1.78c-5.47-.67-11.17-1.01-16.45-1.95l-15.89-2.71c-20.99-4.46-41.83-10.22-61.5-19.13-19.76-8.59-38.9-18.86-56.72-31.3-17.93-12.23-35.02-25.88-50.83-41.05-15.89-15.04-30.96-31.09-44.82-48.24-19.82-24.28-38.03-50.1-54.05-77.27 25.34 30.63 57.41 63.26 97.61 94.82l1.29 1.02c49.11 38.31 109.46 58.92 170.77 58.92 18.89 0 37.88-1.96 56.66-5.96 45.75-9.75 70.46-28.95 70.46-82.35 0-49.81-83.36-75.21-71.97-128.39 6.04 1.44 12.08 2.81 18.14 4.19 1.12.24 2.25.48 3.38.72-.16 8.09 3.8 16.22 11.54 20.9 8.73 5.28 19.26 12.33 31.11 21.56 5.95 4.64 13.53 11.95 20.43 18.98l1.99 2.05c4.62 4.77 10.76 7.16 16.92 7.16 5.74 0 11.49-2.07 16.04-6.24 2.42-2.22 5.1-4.57 8.03-7 12.03-9.98 28.27-21.31 48.17-30.26 6.8 1.02 13.59 2.02 20.39 3.01-5.14 19.65-15.32 41.56-37.22 62.26-.01 0-.01-.01-.01-.01-1.1 1.03-2.2 2.05-3.34 3.08-.06.05-.13.12-.2.17-5.46 4.85-8.86 11.53-10.38 19.3v.03c-.01.03-.01.06-.02.08-1.39 7.22-1.17 15.37.52 23.89-39.93 2.13-70.81 77.09-28.36 119.95 6.88 6.94 15.22 12.13 27.65 14.64-1.9.49-3.82.97-5.73 1.43l-15.74 3.31c-5.32.85-10.73 1.42-16.09 2.15-10.67 1.74-21.67 1.95-32.56 2.68-2.73.13-5.45.39-8.19.41" fill="#CC998B"/><path d="M2328.28 1861.71c39.97 4.19 78.62 16.85 114.7 34.67 36.2 17.67 70.02 40.36 100.71 66.44 30.9 25.9 58.61 55.12 84.55 85.42 25.74 30.49 49.07 62.59 71.97 94.22 11.47 15.8 22.93 31.4 34.86 46.27 11.94 14.84 24.38 28.97 37.99 41 13.59 12.03 28.41 21.79 44.47 27.61 16.96 5.94 36.01 10.29 54.69 14.53 75.64 16.01 153.19 27.58 230.3 38.16l9.09 1.24 3.48 8.2c2.61 6.14 4.49 11.43 6.46 17.17 1.91 5.64 3.66 11.31 5.27 17.03 3.29 11.4 5.84 23.01 7.9 34.75 3.94 23.48 5.73 47.69 2.94 72.11-2.67 24.32-9.79 48.94-22.91 70.73-13.1 21.79-32.23 39.65-53.44 52.5-21.28 13.04-44.6 20.65-67.8 26.25l-17.52 3.67c-5.85.94-11.72 1.57-17.58 2.37-11.73 1.86-23.42 2.12-35.12 2.89-2.93.13-5.86.41-8.78.43l-8.73-.02-17.47-.06c-5.85.11-11.61-.33-17.4-.66l-17.35-1.01-8.67-.52-8.61-.92-17.2-1.85c-5.77-.71-11.4-1.04-17.28-2.06l-17.6-3c-46.74-9.17-91.24-28.67-130.06-55.37-19.48-13.28-37.89-28.03-54.79-44.22-17-16.08-32.99-33.16-47.61-51.25-29.67-35.91-54.31-75.25-77.47-115.23-11.48-20.08-21.37-41.03-29.41-62.7-4.05-10.82-7.44-21.92-10.08-33.24-2.65-11.35-4.7-22.79-5.08-34.89a5.544 5.544 0 0 1 5.36-5.7 5.51 5.51 0 0 1 4.69 2.35l.14.19c6.57 9.47 12.39 19.28 17.95 29.04 5.71 9.73 10.85 19.63 16.03 29.5l30.19 59.4c19.88 39.7 44.56 76.88 72.42 111 13.86 17.15 28.93 33.2 44.82 48.24 15.81 15.17 32.9 28.82 50.83 41.05 17.82 12.44 36.96 22.71 56.72 31.3 19.67 8.91 40.51 14.67 61.5 19.13l15.89 2.71c5.28.94 10.98 1.28 16.45 1.95l16.58 1.78 8.29.9 8.28.49 16.57.96c5.53.32 11.06.75 16.55.64l16.5.05 8.26.03c2.74-.02 5.46-.28 8.19-.41 10.89-.73 21.89-.94 32.56-2.68 5.36-.73 10.77-1.3 16.09-2.15l15.74-3.31c20.69-4.99 40.97-11.69 58.44-22.44 17.46-10.64 32.34-24.63 42.66-41.74 10.28-17.12 16.17-36.96 18.45-57.58 2.4-20.65.89-42.09-2.67-63.22-1.85-10.56-4.15-21.11-7.15-31.48-1.46-5.18-3.05-10.34-4.78-15.42-1.69-4.98-3.65-10.35-5.47-14.64l12.57 9.45c-77.96-10.72-155.4-22.23-232.96-38.63-19.46-4.45-38.7-8.71-58.7-15.68-20.82-7.53-39.14-19.86-54.79-33.72-15.72-13.91-29.18-29.33-41.77-44.95-12.56-15.66-24.28-31.63-35.8-47.5-22.99-31.77-45.75-63.03-70.52-92.38-12.5-14.55-25.21-28.9-38.92-42.17-6.65-6.85-13.83-13.12-20.72-19.69-7.3-6.1-14.3-12.57-21.84-18.34-29.74-23.67-61.39-44.62-94.52-63.31-33.3-18.5-67.74-34.8-102.63-53.47l-.03-.02c-2.65-1.41-3.64-4.7-2.23-7.35 1.08-2 3.23-3.06 5.36-2.84" fill="#802861"/><path d="M2933.83 2367.33c8.92 9.21 23.53 9.57 32.99.91 22.34-20.44 66.55-52.22 126.32-53.23 47.49-.8-34.39-78.82-109.44-72.59-49.83 4.13-85.35 26.02-106.6 43.97-12.39 10.46-10.68 29.97 3.21 38.36 8.73 5.28 19.26 12.33 31.11 21.56 6.52 5.09 15.01 13.39 22.41 21.02" fill="#FFF"/><path d="M2950.76 2374.5c-6.16 0-12.3-2.39-16.92-7.16l-1.99-2.05c.66.69 1.32 1.36 1.98 2.04 4.62 4.77 10.76 7.16 16.93 7.16 5.74 0 11.5-2.07 16.06-6.25a222.111 222.111 0 0 1-.02.02 23.671 23.671 0 0 1-16.04 6.24" fill="#B3757C"/><path d="M3101.31 2292.72l-.03-.03c-5-6.64-12.94-14.03-22.88-21.07h.04c9.94 7.05 17.88 14.45 22.87 21.1" fill="#58A8CC"/><path d="M2870.41 2295.63c1.36-3.44 3.58-6.62 6.67-9.25.31-.24.61-.51.92-.75-.3.25-.6.5-.9.76-3.1 2.62-5.32 5.8-6.69 9.24" fill="#802861"/><path d="M2950.76 2374.49c-6.17 0-12.31-2.39-16.93-7.16-.66-.68-1.32-1.35-1.98-2.04-6.9-7.04-14.47-14.36-20.41-18.99-11.88-9.24-22.4-16.28-31.12-21.56-10.41-6.29-13.98-18.82-9.91-29.11 1.37-3.44 3.59-6.62 6.69-9.24.3-.26.6-.51.9-.76.09-.07.19-.14.28-.21 7.2 4.64 15.36 10.36 24.32 17.32 6.52 5.08 15 13.4 22.4 21a23.416 23.416 0 0 0 16.92 7.19c5.74 0 11.49-2.08 16.04-6.27 18.34-16.74 51.32-41.1 95.52-49.92-4.67 8.03-3.56 25.8-7.53 47.66-30.56 9.18-54.73 25.26-71.12 38.86-2.92 2.43-5.6 4.77-8.01 6.98a23.701 23.701 0 0 1-16.06 6.25m150.52-81.8c-10.55-10.5-21.49-17.38-30.12-20.54 2.38-.22 4.8-.4 7.24-.53 9.94 7.04 17.88 14.43 22.88 21.07" fill="#D5BDCC"/><path d="M2935.37 2368.93l-11.54 11.08c3.63 3.78 7.94 6.67 12.53 8.59 4.6 1.92 9.49 2.88 14.39 2.88 4.51 0 9.03-.82 13.34-2.48 4.31-1.65 8.4-4.17 11.94-7.48v-.01c10.05-9.4 25.61-21.93 45.51-32.07 9.95-5.08 20.99-9.57 32.99-12.85 12-3.28 24.96-5.34 38.88-5.58 3.36-.06 6.58-.39 9.8-1.16 2.41-.58 4.82-1.42 7.2-2.68 1.78-.94 3.54-2.13 5.16-3.6a23.99 23.99 0 0 0 3.34-3.75 23.24 23.24 0 0 0 3.31-6.79c.7-2.36.99-4.72.99-6.92-.01-3.21-.58-6.09-1.4-8.72-.78-2.47-1.79-4.73-2.95-6.9-2.18-4.05-4.9-7.79-8.08-11.48-5.56-6.43-12.55-12.7-20.75-18.73-12.29-9.01-27.27-17.42-43.9-23.73-8.32-3.15-17.05-5.76-26.06-7.59-9-1.84-18.29-2.9-27.71-2.9-3.32 0-6.65.13-9.98.41-28.3 2.34-52.49 10.02-72.32 19.6a205.834 205.834 0 0 0-46.67 31.01 36.72 36.72 0 0 0-9.37 12.83 36.836 36.836 0 0 0-3.09 14.78c0 6.29 1.58 12.52 4.69 18.12 3.1 5.6 7.8 10.56 13.74 14.05 8.67 5.09 19.63 12.26 32.23 22.07 1.38 1.08 3.03 2.47 4.81 4.05 2.67 2.37 5.64 5.17 8.62 8.1 2.99 2.94 6 6 8.81 8.93l11.54-11.08 11.54-11.09c-3.98-4.14-8.36-8.57-12.74-12.76-2.18-2.09-4.37-4.13-6.53-6.04-2.16-1.91-4.28-3.71-6.39-5.35-13.73-10.7-25.85-18.65-35.68-24.42-.95-.58-1.53-1.21-1.97-1.99-.43-.78-.67-1.7-.67-2.59 0-.71.14-1.37.4-1.95.26-.58.61-1.1 1.24-1.67 9.51-8.4 22.68-18.11 39.4-26.18 16.73-8.07 36.99-14.53 61.05-16.53h.01c2.42-.2 4.86-.3 7.33-.3 12.15-.01 24.81 2.41 36.91 6.45 9.07 3.02 17.81 6.95 25.73 11.32 5.94 3.28 11.42 6.81 16.23 10.35 3.61 2.66 6.84 5.32 9.6 7.87 2.07 1.91 3.88 3.76 5.37 5.46 2.25 2.54 3.78 4.79 4.51 6.2.37.69.54 1.17.57 1.28l.01.02.77-.2-.78.16.01.04.77-.2-.78.16 4.17-.86h-4.24c0 .47.05.76.07.86l4.17-.86h-4.24 7.43l-7.24-1.65c-.15.66-.19 1.23-.19 1.65h7.43l-7.24-1.65 8.62 1.96-7.97-3.81a8.56 8.56 0 0 0-.65 1.85l8.62 1.96-7.97-3.81 7.96 3.81-5.89-6.6c-.74.65-1.55 1.68-2.07 2.79l7.96 3.81-5.89-6.6 4.37 4.89-3.02-5.84c-.3.16-.8.46-1.35.95l4.37 4.89-3.02-5.84 1.23 2.37-.85-2.54c-.02.01-.15.05-.38.17l1.23 2.37-.85-2.54-.04.01c-.2.07-1.22.28-2.95.3-16.75.29-32.41 2.79-46.76 6.71-21.55 5.89-40.16 14.94-55.56 24.52-15.4 9.58-27.6 19.7-36.37 27.91v-.01c-.5.47-1.01.78-1.58 1-.57.22-1.19.34-1.84.34-.7 0-1.41-.14-2.06-.41a5.37 5.37 0 0 1-1.79-1.23l-11.53 11.09" fill="#802861"/><path d="M3031.5 2504.8s72.1 20.41 98.42-64.96c36.13-117.21-52.31-175.57-71.59-169.24-19.28 6.33 7.46 72.83-55.71 128.91-23.33 20.72-9.06 74.84 28.88 105.29" fill="#FFF"/><path d="M2992.74 2442.81c-1.69-8.52-1.91-16.67-.52-23.89-1.39 7.22-1.17 15.37.53 23.89h-.01m-.5-23.97v-.03.03m10.58-19.5c1.14-1.03 2.24-2.05 3.34-3.08 0 0 0 .01.01.01-1.09 1.03-2.2 2.04-3.35 3.07" fill="#B3757C"/><path d="M3091.02 2454.68c-61.38 0-79.94-11.92-96.53-11.92-.59 0-1.17.01-1.74.05-1.7-8.52-1.92-16.67-.53-23.89.01-.03.01-.05.02-.08v-.03c1.52-7.78 4.93-14.46 10.4-19.31.06-.05.12-.11.18-.16 1.15-1.03 2.26-2.04 3.35-3.07 6.51 10.56 15.03 20.51 25.31 28.75 0 0 7.56 2.14 18.67 2.14 23.22 0 61.97-9.34 79.77-67.1 1.28-4.2 2.4-8.28 3.36-12.32 7.04 24.88 7.88 55.64-3.36 92.08-1.5 4.86-3.14 9.38-4.92 13.57-4.09.38-8.28.67-12.55.84-7.68.31-14.81.45-21.43.45" fill="#D5BDCC"/><path d="M3031.5 2504.8l-4.36 15.4c.99.26 9.85 2.72 23 2.74 6.88-.01 14.94-.69 23.61-2.84 6.49-1.6 13.33-4.04 20.17-7.63 10.25-5.37 20.47-13.37 29.34-24.57 8.9-11.19 16.45-25.48 21.95-43.35 6.45-20.93 9.29-40.45 9.29-58.37 0-21.09-3.94-39.93-10.28-56.18-4.75-12.19-10.83-22.93-17.56-32.17-5.05-6.93-10.45-13.03-15.97-18.31-8.28-7.91-16.75-13.98-24.85-18.27-4.06-2.14-8.03-3.84-11.98-5.07a48.58 48.58 0 0 0-5.97-1.47c-2.02-.35-4.08-.57-6.25-.57-2.56 0-5.32.29-8.32 1.27l.02-.01c-1.72.57-3.41 1.34-4.98 2.29-1.52.92-2.91 2-4.13 3.17-2.38 2.26-4.08 4.78-5.32 7.19-1.16 2.26-1.95 4.45-2.57 6.58-1.15 3.99-1.73 7.82-2.22 11.78-.42 3.45-.74 7-1.09 10.69-.59 6.44-1.27 13.32-2.49 20.54-1.84 10.83-4.89 22.36-10.7 34.12-2.91 5.89-6.52 11.84-11.07 17.82-4.55 5.98-10.04 12-16.77 17.97a45.627 45.627 0 0 0-7.71 8.88c-3.23 4.85-5.48 10.17-6.91 15.64-1.44 5.49-2.07 11.14-2.07 16.87 0 7.73 1.15 15.59 3.25 23.45 3.16 11.77 8.45 23.53 15.64 34.62 7.21 11.07 16.33 21.47 27.28 30.27l2.53 2.03 3.13.89 4.36-15.4 10.01-12.48c-10.79-8.65-19.53-19.8-25.4-31.24-2.94-5.71-5.17-11.48-6.64-16.97-1.47-5.48-2.17-10.67-2.16-15.17-.01-4.46.68-8.22 1.75-11.08.54-1.43 1.17-2.65 1.86-3.69.7-1.04 1.46-1.92 2.33-2.69 8.69-7.72 15.94-15.72 21.95-23.8 10.53-14.15 17.21-28.55 21.47-41.99 3.19-10.08 5.05-19.62 6.27-28.17.92-6.42 1.47-12.28 1.95-17.38.35-3.82.66-7.2 1.01-9.99.25-2.08.53-3.83.81-5.12.2-.96.4-1.66.54-2.03.05-.14.09-.24.11-.29l.01-.03-1.13-.54 1.09.62.04-.08-1.13-.54 1.09.62-5.04-2.85 3.8 4.31c.75-.66 1.13-1.27 1.24-1.46l-5.04-2.85 3.8 4.31-5.24-5.94 2.47 7.52c.93-.28 2.03-.92 2.77-1.58l-5.24-5.94 2.47 7.52h.02l-1.7-5.14v5.48c.06-.01.59.02 1.7-.34l-1.7-5.14v5.48-.08.08-.08.08c.05 0 .51.03 1.23.19 1.36.3 3.61 1.05 6.27 2.33 4.66 2.23 10.57 6.05 16.56 11.35 4.5 3.97 9.08 8.77 13.38 14.37 6.46 8.4 12.3 18.57 16.54 30.49 4.23 11.93 6.87 25.64 6.88 41.31 0 14.55-2.29 30.83-7.87 48.95-4.01 13-9.03 22.77-14.39 30.19-4.03 5.57-8.25 9.84-12.54 13.21-6.43 5.03-13.05 8.08-19.51 9.94-6.44 1.85-12.72 2.47-18.05 2.47-4.52 0-8.34-.44-10.91-.86-1.28-.21-2.25-.41-2.83-.55-.3-.06-.49-.11-.59-.14l-.05-.01-2.75 10.07 2.85-10.04-.1-.03-2.75 10.07 2.85-10.04-4.36 15.39 10.01-12.48-10.01 12.48" fill="#802861"/><path d="M2964.38 2562.76c14.41 14.55 35.24 21.39 86.69 12.03 105.19-19.14 183.78-92.18 158.41-119.22-17.12-18.25-52.48-3.12-97.03-1.34-78.77 3.16-99.58-11.47-117.96-11.47-40.77 0-73.18 76.52-30.11 120" fill="#FFF"/><path d="M3084.8 2566.63s.01 0 .01-.01c56.47-17.11 101.37-48.37 120.06-74.84-18.66 26.48-63.56 57.74-120.07 74.85" fill="#58A8CC"/><path d="M3070.83 2570.5c4.73-1.19 9.39-2.49 13.98-3.88 0 .01-.01.01-.01.01-4.59 1.39-9.24 2.68-13.97 3.87" fill="#802861"/><path d="M3010.82 2579.07c-23.68 0-36.56-6.35-46.42-16.33-30.36-30.64-23.24-77.68-2.08-102.8-.96 19.08 4.8 39 20.28 54.64 9.87 9.98 22.75 16.33 46.44 16.33 10.88 0 24.05-1.34 40.24-4.29 61.56-11.2 114-40.88 141.84-68.96 5.92 8.51 3.2 20.7-6.25 34.12-18.69 26.47-63.59 57.73-120.06 74.84-4.59 1.39-9.25 2.69-13.98 3.88a295.17 295.17 0 0 1-19.75 4.28c-16.21 2.95-29.37 4.29-40.26 4.29" fill="#D5BDCC"/><path d="M2964.38 2562.76l-11.37 11.26c3.09 3.12 6.58 6.11 10.53 8.77 5.92 4 12.87 7.18 20.72 9.23 7.87 2.06 16.62 3.06 26.57 3.06 12.19-.01 26.24-1.49 43.1-4.55 24.17-4.4 46.93-11.47 67.55-20.16 15.46-6.52 29.73-13.94 42.5-21.87 9.58-5.95 18.32-12.19 26.11-18.57 5.84-4.78 11.15-9.65 15.88-14.57 7.08-7.39 12.88-14.87 17.16-22.61 2.13-3.87 3.88-7.82 5.13-11.93 1.25-4.1 2.01-8.37 2.01-12.8.01-4.11-.68-8.36-2.22-12.4-1.53-4.05-3.92-7.83-6.9-11a40.735 40.735 0 0 0-8.5-6.92c-4.61-2.83-9.55-4.6-14.44-5.64-4.89-1.05-9.76-1.4-14.62-1.41-5.56.01-11.14.48-16.83 1.14-8.53 1-17.35 2.44-26.51 3.7-9.17 1.27-18.67 2.36-28.45 2.76-7.47.3-14.38.43-20.78.43-14.83 0-26.92-.72-36.97-1.78-7.54-.79-13.93-1.77-19.51-2.8-8.39-1.55-14.92-3.21-21.09-4.63-3.08-.71-6.08-1.37-9.2-1.87-3.11-.5-6.35-.84-9.76-.84-5.06 0-10 .79-14.65 2.23-4.08 1.25-7.95 2.98-11.57 5.08-6.34 3.69-11.94 8.47-16.83 13.97-7.33 8.27-13.1 18.18-17.14 29.04-4.02 10.87-6.31 22.73-6.32 34.93 0 10.71 1.79 21.7 5.84 32.31 4.04 10.61 10.38 20.81 19.19 29.7l22.74-22.52c-5.63-5.7-9.49-11.93-12.03-18.59-2.54-6.64-3.74-13.73-3.74-20.9 0-7.1 1.19-14.25 3.32-20.88 1.59-4.98 3.72-9.65 6.19-13.78 1.86-3.09 3.91-5.88 6.06-8.27 3.21-3.59 6.63-6.25 9.85-7.92 1.61-.83 3.17-1.43 4.68-1.82 1.5-.39 2.95-.58 4.41-.58 1.11 0 2.42.1 4.06.34 2.87.41 6.74 1.3 11.73 2.49 7.5 1.77 17.41 4.11 30.5 5.93 13.11 1.83 29.43 3.16 50.24 3.16 6.85 0 14.19-.14 22.07-.46 15.1-.61 28.87-2.62 40.85-4.37 5.99-.88 11.54-1.7 16.52-2.28 4.99-.58 9.42-.92 13.13-.92 2.16 0 4.07.12 5.69.32 2.46.32 4.23.83 5.51 1.41 1.28.59 2.11 1.18 3.02 2.14.27.29.28.35.33.47.04.12.13.37.14 1.03 0 .55-.08 1.39-.36 2.51-.51 2.1-1.75 5.14-3.93 8.69-1.89 3.1-4.47 6.58-7.68 10.25-5.62 6.42-13.2 13.4-22.35 20.31-13.73 10.38-31.01 20.62-50.67 29.28-19.67 8.66-41.73 15.74-65.08 19.99-15.54 2.83-27.82 4.03-37.38 4.03-5.21 0-9.61-.35-13.34-.95-2.79-.45-5.2-1.03-7.33-1.71-3.18-1.02-5.71-2.24-8-3.69-2.28-1.44-4.34-3.14-6.41-5.23l-11.37 11.26" fill="#802861"/><path d="M2012 2086.03c-141.8 0-275.04-17.41-391-52.81l24.16-76.92c110.23 30.66 234.96 45.74 367.06 45.74 1.54 0 3.08-.01 4.62-.01 121.41-.32 236.55-13.29 340.01-39.3l24.37 77.56c-109.61 30.3-233.36 45.38-364.38 45.73-1.61.01-3.23.01-4.84.01" fill="#CC998B"/><path d="M1621 2033.22c-42.24-12.84-82.2-28.12-119.44-45.84-4.6-2.17-9.15-4.39-13.67-6.65 24.31-18.58 49.82-35.42 76.32-50.77 12.79 4.82 25.84 9.39 39.13 13.73a994.86 994.86 0 0 0 41.82 12.61l-24.16 76.92" fill="#CC998B"/><path d="M1487.89 1980.73c-5.62-2.81-11.17-5.68-16.65-8.59a566.99 566.99 0 0 1 56.4-40.16c2.56-5.16 3.96-7.88 3.96-7.88h9.08c1.17-.68 2.38-1.33 3.62-1.93 6.56 2.66 13.2 5.26 19.91 7.79-26.5 15.35-52.01 32.19-76.32 50.77" fill="#802861"/><path d="M2381.22 2040.29l-24.37-77.56c30.82-7.75 60.61-16.66 89.2-26.72 26.54 15.92 52.04 33.4 76.28 52.69.09.07.18.14.28.21-2.95 1.38-5.91 2.73-8.89 4.07-38.04 17.16-78.8 31.92-121.76 44.28-3.56 1.03-7.15 2.04-10.74 3.03" fill="#CC998B"/><path d="M2522.61 1988.91c-.1-.07-.19-.14-.28-.21-24.24-19.29-49.74-36.77-76.28-52.69a894.51 894.51 0 0 0 31.88-11.91h3.23s1.6 3.04 4.48 8.88c22.24 13.96 42.48 28.84 61 44.24-7.87 4-15.89 7.9-24.03 11.69" fill="#802861"/><path d="M2831.13 1456.43c.98 368.9-363.76 544.4-814.29 545.6-450.53 1.2-816.24-172.36-817.22-541.27-.94-353.56 227.53-757.981 744.85-792.255 62.46-32.086 147.1-87.591 194.58-169.566 14.87-25.63 52.73-22.03 62.21 6.119 12.58 37.415 24.13 86.557-.8 150.106 69.14-33.798 137.83-72.23 160.42-92.62 24.19-21.818 62.76-4.133 61.73 28.413-1.03 31.476-12.22 98.243-25.23 154.227 297.01 139.372 433.03 439.926 433.75 711.246" fill="#F0CC9F"/><path d="M1519.93 1911.83c-124.65-55.31-220.96-136.46-274.14-244.54 53.18 108.09 149.48 189.23 274.15 244.54h-.01" fill="#58A8CC"/><path d="M1524.61 1913.89c-1.55-.68-3.14-1.37-4.68-2.06h.01c1.54.69 3.12 1.38 4.67 2.06m19.69 8.28c-6.65-2.69-13.19-5.44-19.69-8.28 6.5 2.83 13.04 5.58 19.69 8.28" fill="#802861"/><path d="M2580.36 1874.83c134.71-78.25 225.09-193.2 246.08-346.57l.03-.16.06-.44.03-.22c.01-.12.03-.27.05-.39.02-.17.04-.34.07-.51.01-.09.01-.13.03-.22.01-.13.03-.26.05-.4 0-.04.01-.09.02-.13 2.29-17.44 3.7-35.37 4.17-53.79v-.03c.02-.69.03-1.38.05-2.07v-.11c0-.16.01-.31.01-.47v-.01c.01-.32.01-.64.02-.96v-.13c.01-.14.01-.29.01-.43v-.19c.01-.14.01-.27.01-.41v-.19c.01-.23.01-.46.01-.69.01-.09.01-.19.01-.28v-.34c.01-.12.01-.2.01-.31v-.32c0-.18.01-.39.01-.57v-.28c0-.13.01-.23.01-.37v-.29-.39c0-.08.01-.16.01-.25v-.59-.26c0-.13 0-.26.01-.39v-.27-.46-.18-.63c0-.07 0-.13.01-.19v-.47-.22-.59-.05-.66-.19-.48-.2-.65c-.04-12.44-.35-24.93-.96-37.48.63 12.55.94 25.03.97 37.47.5 189.8-95.8 328.4-250.78 418.41m-1334.59-207.58l-.19-.38.19.38m-.32-.65c-.02-.05-.05-.1-.07-.15.02.05.05.1.07.15m-.22-.45c-.03-.05-.03-.07-.06-.12.03.05.03.07.06.12M1206.53 1544.46c0-.02-.01-.05-.01-.07 0 .02.01.05.01.07m-.06-.39c-.01-.04-.03-.14-.03-.18l.03.18m-.08-.46c-.01-.06-.03-.15-.04-.22.01.07.03.16.04.22m-.07-.45c-.02-.08-.03-.18-.05-.26.02.08.03.18.05.26m-.07-.42c-.02-.12-.04-.22-.06-.34.02.1.04.24.06.34m-.06-.35c-4.26-26.05-6.49-53.26-6.57-81.61-.03-11.68.18-23.41.66-35.2-.47 11.77-.69 23.51-.66 35.18.08 28.37 2.31 55.56 6.57 81.63" fill="#58A8CC"/><path d="M2012.18 2002.03c-149.09 0-288.77-19.2-408.84-58.34a926.923 926.923 0 0 1-39.13-13.73 854.524 854.524 0 0 1-39.6-16.07c-1.55-.68-3.13-1.37-4.67-2.06-124.67-55.31-220.97-136.45-274.15-244.54l-.02-.04-.19-.38c-.04-.09-.08-.18-.13-.27-.02-.05-.05-.1-.07-.15-.05-.09-.11-.21-.15-.3-.03-.05-.03-.07-.06-.12-.05-.11-.11-.23-.16-.34a.3.3 0 0 1-.04-.08c-18.1-37.19-31.12-77.57-38.44-121.15 0-.02-.01-.05-.01-.07-.02-.13-.03-.2-.05-.32l-.03-.18c-.02-.1-.03-.18-.05-.28-.01-.06-.03-.15-.04-.22-.01-.08-.02-.14-.03-.23-.02-.08-.03-.18-.05-.26-.01-.06-.01-.1-.02-.16-.02-.1-.04-.24-.06-.34v-.01c-4.26-26.07-6.49-53.26-6.57-81.63-.03-11.67.19-23.41.66-35.18.14-3.26.29-6.53.46-9.8 22.08 344.98 376.73 508.21 811.46 508.21 1.54 0 3.08 0 4.62-.01 391.73-1.04 718.56-133.86 796.62-410.96.01.92.01 1.83.01 2.75.11 39.14-3.9 76.11-11.74 110.95 11.63-30.86 19.97-63.68 24.73-98.46-20.99 153.37-111.37 268.32-246.08 346.57-146.26 84.94-344.78 126.61-563.54 127.19-1.54.01-3.1.01-4.64.01M2826.56 1527.44a5.197 5.197 0 0 0 0 0m.12-.9l.03-.22c-.02.09-.02.13-.03.22M2830.95 1472v-.03.03m.05-2.1v-.11.11m.01-.58v-.01.01m.02-.97v-.13.13m.01-.56v-.19.19m.01-.6v-.19.19m.01-.88c.01-.1.01-.19.01-.28 0 .09 0 .19-.01.28m.01-.62c.01-.11.01-.21.01-.31 0 .11 0 .19-.01.31m.01-.63c.01-.19.01-.38.01-.57 0 .18-.01.39-.01.57m.01-.85c0-.12.01-.24.01-.37 0 .14-.01.24-.01.37m.01-.66v-.39.39m.01-.64v-.59.59m0-.85c0-.13.01-.26.01-.39-.01.13-.01.26-.01.39m.01-.66v-.46.46m0-.64v-.63.63m.01-.82v-.47.47m0-.69v-.59.59m0-.64v-.66.66m0-.85v-.48.48m0-.68v-.65.65" fill="#CC998B"/><path d="M1240.23 1200.67c.02-.05.04-.13.06-.18a.95.95 0 0 0-.06.18m.12-.37c83.87-260.22 299.93-492.603 671.89-529.149-371.96 36.543-588.01 268.919-671.89 529.149m671.94-529.153l.69-.068-.69.068m3-.29l.62-.059c-.19.017-.44.041-.62.059m2.98-.28l.6-.055-.6.055m.72-.066l.69-.062-.69.062m.69-.063l1.44-.129-1.44.129m1.59-.142l.55-.049-.55.049m.72-.064c.19-.018.41-.036.61-.054l-.61.054m.69-.061l.73-.064-.73.064M1925.69 669.921l.7-.059-.7.059m.75-.063l.64-.053-.64.053m.83-.069l.51-.042-.51.042m.71-.059l.54-.044-.54.044m.7-.058l.7-.057-.7.057m.76-.062l.62-.049-.62.049m.84-.067l.5-.04-.5.04m.7-.056l.55-.044-.55.044m.7-.055l.71-.056-.71.056m.73-.057c.2-.016.46-.037.67-.052l-.67.052m.88-.069l.48-.037-.48.037m.71-.055l.48-.036-.48.036m.71-.054l.68-.051-.68.051m.74-.055c.2-.016.43-.032.63-.047l-.63.047m.86-.064l.47-.035-.47.035m.72-.053l.46-.035-.46.035m.69-.051l.7-.05-.7.05m.7-.051l.68-.048-.68.048m.92-.066l.44-.031-.44.031m.72-.051c.15-.01.29-.021.45-.031l-.45.031m2.3-.159l.47-.033-.47.033m.71-.049l.48-.032-.48.032m.7-.047l.7-.046-.7.046" fill="#82EAFF"/><path d="M2813.44 1513.02c-1.67-254.55-141.44-548.9-404.21-698.615-29.98-17.082-45.62-51.465-38.21-85.166 8.35-38.019 15.25-73.765 15.93-94.589.59-18.506-5.82-27.15-15.9-27.15-7.65 0-17.41 4.971-27.85 14.384-17.66 15.938-63.49 42.906-115.69 70.065-3.36 1.75-6.86 2.546-10.27 2.547-12.78 0-24.19-11.229-22-25.304 6.59-42.244-2.24-76.802-11.65-104.794-4.86-14.413-11.45-23.284-19.73-23.284-7.89 0-17.32 8.051-28.24 27.036-31.5 54.747-86.06 93.217-137.44 122.289-41.09 23.244-86.59 37.385-133.4 43.439-348.39 45.046-554.18 265.752-638.31 514.302 4.11-15.92 8.69-31.76 13.76-47.51a.95.95 0 0 1 .06-.18c.02-.07.03-.12.06-.19 83.88-260.23 299.93-492.606 671.89-529.149l.05-.004.69-.068.04-.004c.74-.072 1.42-.138 2.17-.209l.1-.009c.18-.018.43-.042.62-.059l.09-.009 2.15-.2.12-.012.6-.055.12-.011.69-.062v-.001l1.44-.129.15-.013.55-.049.17-.015.61-.054.08-.007.73-.064h.01a81.097 81.097 0 0 1 .86-.075l.5-.043.22-.019.51-.044.18-.015.7-.059.05-.004.64-.053.19-.016.51-.042c.07-.007.13-.011.2-.017a98.17 98.17 0 0 1 .7-.058l.7-.057.06-.005.62-.049.22-.018.5-.04.2-.016.55-.044.15-.011.71-.056.02-.001.67-.052.21-.017.48-.037.23-.018.48-.036.23-.018.68-.051.06-.004.63-.047.23-.017.47-.035.25-.018.46-.035.23-.016.7-.05v-.001l.68-.048.24-.018.44-.031.28-.02.45-.031.24-.017 1.37-.095.24-.016.47-.033.24-.016.48-.032.22-.015.7-.046c62.46-32.086 147.1-87.591 194.58-169.566 6.77-11.661 18.29-17.272 29.74-17.272 13.71 0 27.3 8.049 32.47 23.391 7.13 21.192 13.92 46.146 13.94 75.35.02 22.355-3.94 47.201-14.74 74.756 69.14-33.798 137.83-72.23 160.42-92.62 7.38-6.658 16.11-9.639 24.63-9.639 19.04 0 37.09 14.84 37.12 36.735 0 .435-.01.876-.02 1.317-1.03 31.476-12.22 98.243-25.23 154.227 283.4 132.983 420.22 412.716 432.79 673.766-.06-1.2-.12-2.4-.19-3.61-2.28 34.36-7.87 66.89-16.54 97.68" fill="#F5DCBD"/><path d="M2826.44 1528.26l.03-.16-.03.16m.09-.6c.01-.08.01-.13.03-.22l-.03.22m.08-.61c.02-.17.04-.35.07-.51-.03.17-.05.34-.07.51m.1-.73c.01-.12.03-.27.05-.4-.02.14-.04.27-.05.4m.07-.53c2.29-17.45 3.7-35.36 4.17-53.79-.47 18.42-1.88 36.35-4.17 53.79m4.17-53.82c.02-.69.03-1.38.05-2.07-.02.69-.03 1.38-.05 2.07m.05-2.18c0-.16.01-.32.01-.47 0 .16-.01.31-.01.47m.01-.48c.01-.31.01-.64.02-.96-.01.32-.01.64-.02.96m.02-1.09c.01-.16.01-.27.01-.43 0 .14 0 .29-.01.43m.01-.62c.01-.13.01-.27.01-.41 0 .14 0 .27-.01.41m.01-.6c.01-.22.01-.47.01-.69 0 .23 0 .46-.01.69m.02-.97v-.34.34m.01-.65v-.32.32m.01-.89v-.28.28m.01-.65v-.29.29m0-.68c0-.09.01-.16.01-.25 0 .09-.01.17-.01.25m.01-.84v-.26.26m.01-.65v-.27.27m0-.73v-.18.18m0-.81c0-.06 0-.13.01-.19-.01.06-.01.12-.01.19m.01-.66v-.22.22m0-.81v-.05.05m0-.71v-.19.19m0-.67v-.2.2" fill="#91C3DC"/><path d="M2801.71 1626.72c7.84-34.84 11.85-71.81 11.74-110.95 0-.92 0-1.83-.01-2.75 8.67-30.79 14.26-63.32 16.54-97.68.07 1.21.13 2.41.19 3.61.61 12.55.92 25.04.96 37.48v3.51c-.01.06-.01.13-.01.19v1.54c0 .13-.01.26-.01.39v.85c0 .09-.01.16-.01.25V1463.84c0 .13-.01.25-.01.37v.28c0 .19 0 .38-.01.57v.32c0 .1 0 .2-.01.31v.34c0 .09 0 .18-.01.28 0 .22 0 .47-.01.69v.19c0 .14 0 .28-.01.41v.19c0 .16 0 .27-.01.43v.13c-.01.32-.01.65-.02.96v.01c0 .15-.01.31-.01.47v.11c-.02.69-.03 1.38-.05 2.07v.03c-.47 18.43-1.88 36.34-4.17 53.79-.01.04-.02.09-.02.13-.02.13-.04.28-.05.4l-.03.22c-.03.16-.05.34-.07.51-.02.13-.04.26-.05.39-.02.09-.02.14-.03.22l-.06.44-.03.16c-4.76 34.78-13.1 67.6-24.73 98.46" fill="#DBBAB0"/><path d="M2669.89 1406.96c.28 107.49-31.99 223.29-129.37 312.96-99.51 91.72-267.04 156.2-537.39 156.92h-.04c-267.52.71-434.69-61.56-535.06-151.17-100.34-89.56-133.93-206.5-134.22-315.16-.06-22.08 1.71-43.78 5.17-64.86 30.42-186.57 192.09-329.17 387.29-329.69 106.76-.28 203.79 41.99 274.83 110.87 70.71-69.25 167.48-112.04 274.24-112.33 192.8-.51 353.54 137.67 387.77 320.61v.04c4.4 23.27 6.71 47.29 6.78 71.81" fill="#FEFBFC"/><path d="M2101.55 1432.67c.08 33.49-44.42 73.87-99.44 74.01-55.03.15-99.74-39.99-99.83-73.48-.09-33.49 44.48-47.66 99.51-47.81 55.02-.15 99.67 13.79 99.76 47.28" fill="#802861"/><path d="M2004.5 1431.69c-22.3 0-40.37-9.34-40.39-17.14-.03-7.83 18.13-11.17 40.53-11.23h.61c22.13 0 39.97 3.25 39.99 11.01.02 7.83-18.12 17.3-40.52 17.35-.07.01-.15.01-.22.01" fill="#C39DB4"/><path d="M1539.6 1902.91c-49.5-20.9-94.48-45.74-134.07-74.51-29.69-21.57-56.35-45.35-79.65-71.35-34.95-39-62.35-82.95-81.14-132.19-18.78-49.24-28.95-103.81-29.12-164.14v-2.13c0-83.65 13.1-170.26 40.1-253.84 20.25-62.7 48.31-123.69 84.49-180.53 54.28-85.27 126.77-161.185 218.77-219.745 92.01-58.548 203.59-99.817 336.5-115.442 8.77-1.031 15.05-8.981 14.02-17.757-1.03-8.776-8.98-15.055-17.76-14.024-122.07 14.333-227.65 49.806-317.14 100.515-67.12 38.024-125.18 84.598-174.45 137.103-73.91 78.77-128.03 170.86-163.68 267.62-35.65 96.77-52.85 198.24-52.85 296.1v2.22c.15 56.78 8.72 109.36 24.83 157.58a447.878 447.878 0 0 0 48.5 101.04c30.16 46.77 68.81 87.83 114.34 123.26 45.54 35.43 97.97 65.25 155.86 89.7 8.14 3.44 17.53-.38 20.96-8.52 3.44-8.14-.37-17.52-8.51-20.96" fill="#802861"/><path d="M1637.8 1956.46c-9.27.32-18.36-.27-27.41-1.13-9.02-.96-17.99-2.27-26.85-4.01-8.85-1.75-17.7-3.64-26.21-6.52-8.52-2.86-16.86-6.27-24.56-11.13-7.11-4.49-9.24-13.9-4.75-21.01 3.52-5.57 10.04-8.08 16.12-6.76l.13.03c8.58 1.89 16.63 4.97 24.6 8.35 7.98 3.35 15.7 7.45 23.51 11.45 7.8 4.01 15.58 8.21 23.37 12.54 7.76 4.43 15.56 8.9 23.23 14.06 1.04.69 1.31 2.09.62 3.13-.42.62-1.1.97-1.8 1" fill="#802861"/><path d="M1864.58 1414.64c-16.43 116.53-110.14 144.16-232.5 193.72-76.77 31.08-129.57 76.97-164.06 117.31-100.33-89.56-133.92-206.5-134.21-315.16-.06-22.08 1.71-43.78 5.17-64.86 71.97-75.19 185.79-147.51 349.97-128.19 120.17 14.17 187.41 113.55 175.63 197.18m805.3-7.68c.29 107.49-31.98 223.29-129.36 312.96-34.78-39.42-87.11-83.6-162.23-113.54-122.62-48.91-216.48-76.05-233.52-192.49-12.23-83.56 54.48-183.3 174.57-198.11 158.97-19.59 271.14 47.13 343.77 119.33v.04c4.4 23.27 6.71 47.29 6.77 71.81" fill="#83847C"/><path d="M2195.07 690.401c13.84-14.875 23.3-31.705 29.15-49.145 5.86-17.452 8.19-35.484 8.19-53.215 0-15.693-1.82-31.178-4.72-46.01-2.89-14.832-6.88-29.014-11.28-42.094-1.83-5.444-4.47-10.402-7.75-14.7a49.192 49.192 0 0 0-18.05-14.66 50.75 50.75 0 0 0-21.81-4.91c-8.33 0-16.75 2.041-24.39 6.276a49.74 49.74 0 0 0-10.66 7.962 51.942 51.942 0 0 0-8.53 11.029c-19.36 33.411-43.64 60.521-69.31 82.461-38.49 32.905-80.16 54.079-112.1 66.897-15.97 6.412-29.5 10.743-38.94 13.448a270.5 270.5 0 0 1-10.9 2.899c-1.24.3-2.17.513-2.77.646-.3.067-.52.113-.65.141l-.13.028v.028-.028.028-.028c-8.66 1.765-14.25 10.215-12.48 18.873 1.76 8.659 10.21 14.247 18.87 12.483.95-.208 43.17-8.844 96.18-35.706 26.5-13.441 55.7-31.458 83.7-55.38 28-23.916 54.8-53.772 76.22-90.747a19.755 19.755 0 0 1 3.25-4.227 17.45 17.45 0 0 1 5.86-3.809 18.492 18.492 0 0 1 6.78-1.274c3.73-.004 7.43 1.114 10.41 3.156a17.141 17.141 0 0 1 3.99 3.788c1.15 1.521 2.14 3.315 2.88 5.532 4.03 11.975 7.63 24.843 10.21 38.023 2.57 13.18 4.12 26.668 4.12 39.875 0 14.94-1.97 29.486-6.52 43.021-4.57 13.547-11.64 26.114-22.26 37.552-6.02 6.472-5.65 16.596.83 22.612 6.47 6.016 16.59 5.647 22.61-.825" fill="#802861"/><path d="M2486.87 1937.77c53.91-21.56 103.34-47.58 147.24-78.21 32.92-22.98 62.72-48.56 88.9-76.79 39.27-42.35 70.39-90.7 91.6-144.94 21.22-54.23 32.52-114.29 32.52-179.92v-1.52c-.19-69.37-9.04-140.53-26.96-210.53-26.89-104.99-74.22-207.41-143.53-296.99-69.3-89.577-160.65-166.26-275.1-219.437l-6.74 14.509 14.44 6.88 1.42-2.979.08-.167c5.13-11.102 9.25-23.21 12.65-35.942 5.1-19.097 8.56-39.614 10.93-60.148 2.37-20.53 3.65-41.069 4.26-60.108.02-.611.03-1.214.03-1.806 0-7.677-1.61-14.999-4.5-21.491a51.543 51.543 0 0 0-8.43-13.128c-5.08-5.771-11.29-10.28-18.13-13.369a53.632 53.632 0 0 0-22.03-4.765 51.99 51.99 0 0 0-18.42 3.359c-6.03 2.276-11.81 5.765-16.95 10.404-21.61 19.492-47.46 40.49-74.2 57.396-13.37 8.455-26.95 15.883-40.25 21.625-13.29 5.748-26.28 9.791-38.41 11.652-8.74 1.344-14.73 9.514-13.38 18.248 1.34 8.734 9.51 14.724 18.24 13.38 15.56-2.4 31.03-7.337 46.24-13.905 22.82-9.866 45.09-23.428 65.97-38.303 20.87-14.878 40.31-31.087 57.22-46.328 2.25-2.025 4.53-3.359 6.84-4.239a20.021 20.021 0 0 1 7.1-1.289c2.68-.001 5.39.526 7.92 1.533 3.81 1.508 7.16 4.08 9.45 7.293a19.32 19.32 0 0 1 2.71 5.343c.63 1.964 1 4.123 1.01 6.584 0 .264-.01.524-.02.78-.78 24.46-2.71 51.349-6.65 76.702-1.96 12.674-4.43 24.959-7.46 36.325-3.04 11.366-6.64 21.809-10.79 30.772l14.52 6.713-14.44-6.88-1.42 2.979a15.965 15.965 0 0 0-.61 12.3 16.007 16.007 0 0 0 8.31 9.089c73.13 33.985 136.24 77.855 189.88 128.745 80.45 76.333 139.62 168.513 178.75 266.753 39.13 98.22 58.19 202.47 58.45 302.52v-.02 1.46c-.01 55.08-8.4 105.4-24.09 151.27-11.78 34.4-27.66 66.31-47.3 95.86-29.46 44.32-67.39 83.35-112.61 117.19-45.21 33.84-97.72 62.46-156.14 85.82-8.21 3.29-12.2 12.6-8.92 20.8 3.28 8.21 12.6 12.2 20.8 8.92" fill="#802861"/><path d="M2365.53 1958.29c8.5-5.17 17.12-9.65 25.68-14.12 8.6-4.36 17.18-8.6 25.77-12.67 8.59-4.05 17.1-8.22 25.83-11.66 8.74-3.46 17.54-6.63 26.84-8.62l.09-.01c8.21-1.75 16.29 3.48 18.04 11.69 1.4 6.57-1.69 13.06-7.18 16.29-8.49 4.98-17.6 8.47-26.87 11.41-9.27 2.95-18.87 4.9-28.47 6.68-9.61 1.78-19.31 3.11-29.07 4.07-9.78.86-19.59 1.44-29.58 1.09a2.235 2.235 0 0 1-2.16-2.31c.03-.78.46-1.46 1.08-1.84m-827.25-545.25c2.15-2.62 3.7-4.37 5.55-6.42 1.81-1.94 3.67-3.79 5.55-5.6 3.73-3.68 7.75-6.95 11.79-10.22 8.16-6.42 16.93-12.06 26.16-17.01 18.48-9.8 38.94-16.54 60.21-19.62 10.65-1.48 21.46-1.93 32.24-1.5 10.79.63 21.5 2.18 31.9 4.81 20.76 5.39 40.23 14.77 56.21 28 7.44 6.16 8.47 17.18 2.31 24.62-4.22 5.1-10.73 7.19-16.8 6.01l-.83-.17c-17.52-3.43-33.76-6.36-49.84-7.6-8.05-.48-15.99-.77-23.92-.57-7.92.25-15.82.86-23.72 1.81-15.8 2.15-31.62 5.8-47.44 10.94-7.94 2.51-15.84 5.44-23.77 8.55-4.02 1.47-7.89 3.25-11.86 4.87l-5.87 2.56c-1.91.73-4.05 1.86-5.47 2.26l-4.72 1.32c-9.01 2.53-18.36-2.72-20.88-11.73-1.55-5.49-.13-11.19 3.2-15.31m922.09 23.33c-1.42-.39-3.57-1.51-5.48-2.24l-5.88-2.52c-3.98-1.6-7.86-3.36-11.89-4.81-7.95-3.07-15.86-5.95-23.81-8.42-15.85-5.05-31.7-8.62-47.5-10.68-7.91-.91-15.81-1.49-23.74-1.69-7.93-.16-15.86.17-23.91.7-16.07 1.32-32.3 4.34-49.8 7.86l-.8.17c-9.47 1.9-18.69-4.23-20.59-13.69-1.31-6.49 1.18-12.88 5.91-16.86 15.91-13.32 35.33-22.8 56.06-28.3 10.39-2.68 21.09-4.29 31.87-4.98 10.78-.48 21.6-.09 32.25 1.33 21.29 2.97 41.78 9.6 60.32 19.3 9.25 4.9 18.05 10.49 26.25 16.87 4.06 3.25 8.09 6.5 11.84 10.16 1.89 1.81 3.76 3.64 5.58 5.57 1.86 2.04 3.42 3.78 5.58 6.39 5.97 7.2 4.97 17.88-2.23 23.85a16.925 16.925 0 0 1-15.2 3.32l-4.83-1.33m-344.45 153.76c-4.32 4.02-8.01 6.97-12.21 10.07-4.1 3.01-8.38 5.69-12.7 8.38-8.71 5.2-17.93 9.57-27.55 13.21-19.18 7.3-40.14 11.47-61.76 11.19-21.98-.41-42.93-5.63-61.78-13.87-9.42-4.18-18.42-9-26.86-14.61-4.17-2.9-8.33-5.75-12.26-8.98-4.04-3.25-7.58-6.4-11.69-10.56-6.26-6.35-6.19-16.56.15-22.82 4.36-4.31 10.57-5.62 16.05-3.95l2.43.75c3.5 1.07 7.82 2.79 11.79 4.14 4.06 1.4 8.07 2.87 12.14 4.13 8.09 2.63 16.13 5.01 24.1 7.03 15.94 4.12 31.61 6.53 46.59 6.75 7.65-.01 15.49-.28 23.4-1.28 7.93-.76 15.93-2.18 24.02-3.79 8.1-1.6 16.26-3.57 24.47-5.79 4.14-1.02 8.22-2.26 12.35-3.43 4.01-1.13 8.44-2.6 11.97-3.45l2.55-.62c8.66-2.1 17.39 3.22 19.49 11.89 1.42 5.86-.58 11.77-4.69 15.61" fill="#802861"/></svg>